solid OpenSCAD_Model
  facet normal 0 0 1
    outer loop
      vertex -0.449999 0.15 0.0299997
      vertex -0.499999 -0.15 0.0299997
      vertex -0.45 -0.15 0.0299997
    endloop
  endfacet
  facet normal 0 -0 1
    outer loop
      vertex -0.499999 -0.15 0.0299997
      vertex -0.449999 0.15 0.0299997
      vertex -0.5 0.15 0.0299997
    endloop
  endfacet
  facet normal 0 -1 0
    outer loop
      vertex -0.499999 -0.15 0
      vertex -0.45 -0.15 0.0299997
      vertex -0.499999 -0.15 0.0299997
    endloop
  endfacet
  facet normal 0 -1 -0
    outer loop
      vertex -0.45 -0.15 0.0299997
      vertex -0.499999 -0.15 0
      vertex -0.45 -0.15 0
    endloop
  endfacet
  facet normal -1 -3.33333e-06 0
    outer loop
      vertex -0.499999 -0.15 0
      vertex -0.5 0.15 0.0299997
      vertex -0.5 0.15 0
    endloop
  endfacet
  facet normal -1 -3.33333e-06 0
    outer loop
      vertex -0.5 0.15 0.0299997
      vertex -0.499999 -0.15 0
      vertex -0.499999 -0.15 0.0299997
    endloop
  endfacet
  facet normal 0 0 -1
    outer loop
      vertex -0.499999 -0.15 0
      vertex -0.449999 0.15 0
      vertex -0.45 -0.15 0
    endloop
  endfacet
  facet normal -0 0 -1
    outer loop
      vertex -0.449999 0.15 0
      vertex -0.499999 -0.15 0
      vertex -0.5 0.15 0
    endloop
  endfacet
  facet normal 1 -3.33333e-06 0
    outer loop
      vertex -0.45 -0.15 0.0299997
      vertex -0.449999 0.15 0
      vertex -0.449999 0.15 0.0299997
    endloop
  endfacet
  facet normal 1 -3.33333e-06 0
    outer loop
      vertex -0.449999 0.15 0
      vertex -0.45 -0.15 0.0299997
      vertex -0.45 -0.15 0
    endloop
  endfacet
  facet normal 0 1 -0
    outer loop
      vertex -0.449999 0.15 0
      vertex -0.5 0.15 0.0299997
      vertex -0.449999 0.15 0.0299997
    endloop
  endfacet
  facet normal 0 1 0
    outer loop
      vertex -0.5 0.15 0.0299997
      vertex -0.449999 0.15 0
      vertex -0.5 0.15 0
    endloop
  endfacet
  facet normal 0 0 1
    outer loop
      vertex 0.120096 0.508012 0.0299997
      vertex 0.354904 0.314711 0.0299997
      vertex 0.379904 0.358011 0.0299997
    endloop
  endfacet
  facet normal 0 0 1
    outer loop
      vertex 0.354904 0.314711 0.0299997
      vertex 0.120096 0.508012 0.0299997
      vertex 0.0950958 0.464711 0.0299997
    endloop
  endfacet
  facet normal -0.866022 0.500005 0
    outer loop
      vertex 0.0950958 0.464711 0
      vertex 0.120096 0.508012 0.0299997
      vertex 0.120096 0.508012 0
    endloop
  endfacet
  facet normal -0.866022 0.500005 0
    outer loop
      vertex 0.120096 0.508012 0.0299997
      vertex 0.0950958 0.464711 0
      vertex 0.0950958 0.464711 0.0299997
    endloop
  endfacet
  facet normal 0.866019 -0.500011 0
    outer loop
      vertex 0.354904 0.314711 0.0299997
      vertex 0.379904 0.358011 0
      vertex 0.379904 0.358011 0.0299997
    endloop
  endfacet
  facet normal 0.866019 -0.500011 0
    outer loop
      vertex 0.379904 0.358011 0
      vertex 0.354904 0.314711 0.0299997
      vertex 0.354904 0.314711 0
    endloop
  endfacet
  facet normal 0 0 -1
    outer loop
      vertex 0.354904 0.314711 0
      vertex 0.120096 0.508012 0
      vertex 0.379904 0.358011 0
    endloop
  endfacet
  facet normal 0 -0 -1
    outer loop
      vertex 0.120096 0.508012 0
      vertex 0.354904 0.314711 0
      vertex 0.0950958 0.464711 0
    endloop
  endfacet
  facet normal 0.500002 0.866024 -0
    outer loop
      vertex 0.379904 0.358011 0
      vertex 0.120096 0.508012 0.0299997
      vertex 0.379904 0.358011 0.0299997
    endloop
  endfacet
  facet normal 0.500002 0.866024 0
    outer loop
      vertex 0.120096 0.508012 0.0299997
      vertex 0.379904 0.358011 0
      vertex 0.120096 0.508012 0
    endloop
  endfacet
  facet normal -0.499999 -0.866026 0
    outer loop
      vertex 0.0950958 0.464711 0
      vertex 0.354904 0.314711 0.0299997
      vertex 0.0950958 0.464711 0.0299997
    endloop
  endfacet
  facet normal -0.499999 -0.866026 -0
    outer loop
      vertex 0.354904 0.314711 0.0299997
      vertex 0.0950958 0.464711 0
      vertex 0.354904 0.314711 0
    endloop
  endfacet
  facet normal 0.866025 0.5 0
    outer loop
      vertex 0.0513005 0.0111434 0.0299997
      vertex -0.0986991 0.27095 0
      vertex -0.0986991 0.27095 0.0299997
    endloop
  endfacet
  facet normal 0.866025 0.5 0
    outer loop
      vertex -0.0986991 0.27095 0
      vertex 0.0513005 0.0111434 0.0299997
      vertex 0.0513005 0.0111434 0
    endloop
  endfacet
  facet normal 0 0 1
    outer loop
      vertex -0.0986991 0.27095 0.0299997
      vertex -0.0353007 -0.0388558 0.0299997
      vertex 0.0513005 0.0111434 0.0299997
    endloop
  endfacet
  facet normal 0 0 1
    outer loop
      vertex -0.0353007 -0.0388558 0.0299997
      vertex -0.0986991 0.27095 0.0299997
      vertex -0.1853 0.220951 0.0299997
    endloop
  endfacet
  facet normal 0 0 -1
    outer loop
      vertex -0.0353007 -0.0388558 0
      vertex -0.0986991 0.27095 0
      vertex 0.0513005 0.0111434 0
    endloop
  endfacet
  facet normal 0 -0 -1
    outer loop
      vertex -0.0986991 0.27095 0
      vertex -0.0353007 -0.0388558 0
      vertex -0.1853 0.220951 0
    endloop
  endfacet
  facet normal -0.866026 -0.499999 0
    outer loop
      vertex -0.0353007 -0.0388558 0
      vertex -0.1853 0.220951 0.0299997
      vertex -0.1853 0.220951 0
    endloop
  endfacet
  facet normal -0.866026 -0.499999 0
    outer loop
      vertex -0.1853 0.220951 0.0299997
      vertex -0.0353007 -0.0388558 0
      vertex -0.0353007 -0.0388558 0.0299997
    endloop
  endfacet
  facet normal -0.5 0.866026 0
    outer loop
      vertex -0.0986991 0.27095 0
      vertex -0.1853 0.220951 0.0299997
      vertex -0.0986991 0.27095 0.0299997
    endloop
  endfacet
  facet normal -0.5 0.866026 0
    outer loop
      vertex -0.1853 0.220951 0.0299997
      vertex -0.0986991 0.27095 0
      vertex -0.1853 0.220951 0
    endloop
  endfacet
  facet normal 0.5 -0.866026 0
    outer loop
      vertex -0.0353007 -0.0388558 0
      vertex 0.0513005 0.0111434 0.0299997
      vertex -0.0353007 -0.0388558 0.0299997
    endloop
  endfacet
  facet normal 0.5 -0.866026 0
    outer loop
      vertex 0.0513005 0.0111434 0.0299997
      vertex -0.0353007 -0.0388558 0
      vertex 0.0513005 0.0111434 0
    endloop
  endfacet
  facet normal 0 0 1
    outer loop
      vertex 0.0416435 0.395092 0.0299997
      vertex 0.183065 0.112249 0.0299997
      vertex 0.253776 0.18296 0.0299997
    endloop
  endfacet
  facet normal 0 0 1
    outer loop
      vertex 0.183065 0.112249 0.0299997
      vertex 0.0416435 0.395092 0.0299997
      vertex -0.0290675 0.324381 0.0299997
    endloop
  endfacet
  facet normal 0.707106 0.707108 -0
    outer loop
      vertex 0.253776 0.18296 0
      vertex 0.0416435 0.395092 0.0299997
      vertex 0.253776 0.18296 0.0299997
    endloop
  endfacet
  facet normal 0.707106 0.707108 0
    outer loop
      vertex 0.0416435 0.395092 0.0299997
      vertex 0.253776 0.18296 0
      vertex 0.0416435 0.395092 0
    endloop
  endfacet
  facet normal -0.707106 -0.707108 0
    outer loop
      vertex -0.0290675 0.324381 0
      vertex 0.183065 0.112249 0.0299997
      vertex -0.0290675 0.324381 0.0299997
    endloop
  endfacet
  facet normal -0.707106 -0.707108 -0
    outer loop
      vertex 0.183065 0.112249 0.0299997
      vertex -0.0290675 0.324381 0
      vertex 0.183065 0.112249 0
    endloop
  endfacet
  facet normal -0.707107 0.707107 0
    outer loop
      vertex 0.0416435 0.395092 0
      vertex -0.0290675 0.324381 0.0299997
      vertex 0.0416435 0.395092 0.0299997
    endloop
  endfacet
  facet normal -0.707107 0.707107 0
    outer loop
      vertex -0.0290675 0.324381 0.0299997
      vertex 0.0416435 0.395092 0
      vertex -0.0290675 0.324381 0
    endloop
  endfacet
  facet normal 0 0 -1
    outer loop
      vertex 0.183065 0.112249 0
      vertex 0.0416435 0.395092 0
      vertex 0.253776 0.18296 0
    endloop
  endfacet
  facet normal 0 -0 -1
    outer loop
      vertex 0.0416435 0.395092 0
      vertex 0.183065 0.112249 0
      vertex -0.0290675 0.324381 0
    endloop
  endfacet
  facet normal 0.707107 -0.707107 0
    outer loop
      vertex 0.183065 0.112249 0
      vertex 0.253776 0.18296 0.0299997
      vertex 0.183065 0.112249 0.0299997
    endloop
  endfacet
  facet normal 0.707107 -0.707107 0
    outer loop
      vertex 0.253776 0.18296 0.0299997
      vertex 0.183065 0.112249 0
      vertex 0.253776 0.18296 0
    endloop
  endfacet
  facet normal 0.965926 0.258817 0
    outer loop
      vertex -0.188743 -0.102414 0.0299997
      vertex -0.266388 0.187364 0
      vertex -0.266388 0.187364 0.0299997
    endloop
  endfacet
  facet normal 0.965926 0.258817 0
    outer loop
      vertex -0.266388 0.187364 0
      vertex -0.188743 -0.102414 0.0299997
      vertex -0.188743 -0.102414 0
    endloop
  endfacet
  facet normal 0 0 1
    outer loop
      vertex -0.266388 0.187364 0.0299997
      vertex -0.285336 -0.128296 0.0299997
      vertex -0.188743 -0.102414 0.0299997
    endloop
  endfacet
  facet normal 0 -0 1
    outer loop
      vertex -0.285336 -0.128296 0.0299997
      vertex -0.266388 0.187364 0.0299997
      vertex -0.362981 0.161482 0.0299997
    endloop
  endfacet
  facet normal 0 0 -1
    outer loop
      vertex -0.285336 -0.128296 0
      vertex -0.266388 0.187364 0
      vertex -0.188743 -0.102414 0
    endloop
  endfacet
  facet normal 0 0 -1
    outer loop
      vertex -0.266388 0.187364 0
      vertex -0.285336 -0.128296 0
      vertex -0.362981 0.161482 0
    endloop
  endfacet
  facet normal -0.965926 -0.258817 0
    outer loop
      vertex -0.285336 -0.128296 0
      vertex -0.362981 0.161482 0.0299997
      vertex -0.362981 0.161482 0
    endloop
  endfacet
  facet normal -0.965926 -0.258817 0
    outer loop
      vertex -0.362981 0.161482 0.0299997
      vertex -0.285336 -0.128296 0
      vertex -0.285336 -0.128296 0.0299997
    endloop
  endfacet
  facet normal -0.258819 0.965926 0
    outer loop
      vertex -0.266388 0.187364 0
      vertex -0.362981 0.161482 0.0299997
      vertex -0.266388 0.187364 0.0299997
    endloop
  endfacet
  facet normal -0.258819 0.965926 0
    outer loop
      vertex -0.362981 0.161482 0.0299997
      vertex -0.266388 0.187364 0
      vertex -0.362981 0.161482 0
    endloop
  endfacet
  facet normal 0.258819 -0.965926 0
    outer loop
      vertex -0.285336 -0.128296 0
      vertex -0.188743 -0.102414 0.0299997
      vertex -0.285336 -0.128296 0.0299997
    endloop
  endfacet
  facet normal 0.258819 -0.965926 0
    outer loop
      vertex -0.188743 -0.102414 0.0299997
      vertex -0.285336 -0.128296 0
      vertex -0.188743 -0.102414 0
    endloop
  endfacet
endsolid OpenSCAD_Model
