solid OpenSCAD_Model
  facet normal -1 -3.33329e-05 0
    outer loop
      vertex -0.499999 -0.104975 0.00999928
      vertex -0.5 -0.0749746 0.04
      vertex -0.5 -0.0749746 0.00999928
    endloop
  endfacet
  facet normal -1 -3.33329e-05 0
    outer loop
      vertex -0.5 -0.0749746 0.04
      vertex -0.499999 -0.104975 0.00999928
      vertex -0.499999 -0.104975 0.04
    endloop
  endfacet
  facet normal 0.500011 0.866019 -0
    outer loop
      vertex 0.34091 0.380525 0.00999928
      vertex 0.31493 0.395525 0.04
      vertex 0.34091 0.380525 0.04
    endloop
  endfacet
  facet normal 0.500011 0.866019 0
    outer loop
      vertex 0.31493 0.395525 0.04
      vertex 0.34091 0.380525 0.00999928
      vertex 0.31493 0.395525 0.00999928
    endloop
  endfacet
  facet normal 0 0 1
    outer loop
      vertex 0.31493 0.395525 0.04
      vertex 0.285555 0.295285 0.04
      vertex 0.34091 0.380525 0.04
    endloop
  endfacet
  facet normal -0 0 1
    outer loop
      vertex 0.261285 0.312919 0.04
      vertex 0.285555 0.295285 0.04
      vertex 0.31493 0.395525 0.04
    endloop
  endfacet
  facet normal 0 0 1
    outer loop
      vertex 0.261285 0.312919 0.04
      vertex 0.221594 0.216299 0.04
      vertex 0.285555 0.295285 0.04
    endloop
  endfacet
  facet normal -0 0 1
    outer loop
      vertex 0.199299 0.236373 0.04
      vertex 0.221594 0.216299 0.04
      vertex 0.261285 0.312919 0.04
    endloop
  endfacet
  facet normal 0 0 1
    outer loop
      vertex 0.199299 0.236373 0.04
      vertex 0.149725 0.144431 0.04
      vertex 0.221594 0.216299 0.04
    endloop
  endfacet
  facet normal -0 0 1
    outer loop
      vertex 0.129652 0.166725 0.04
      vertex 0.149725 0.144431 0.04
      vertex 0.199299 0.236373 0.04
    endloop
  endfacet
  facet normal 0 0 1
    outer loop
      vertex 0.129652 0.166725 0.04
      vertex 0.0707393 0.0804694 0.04
      vertex 0.149725 0.144431 0.04
    endloop
  endfacet
  facet normal -0 0 1
    outer loop
      vertex 0.0531058 0.10474 0.04
      vertex 0.0707393 0.0804694 0.04
      vertex 0.129652 0.166725 0.04
    endloop
  endfacet
  facet normal 0 0 1
    outer loop
      vertex 0.0531058 0.10474 0.04
      vertex -0.0144997 0.0251142 0.04
      vertex 0.0707393 0.0804694 0.04
    endloop
  endfacet
  facet normal -0 0 1
    outer loop
      vertex -0.0294995 0.0510947 0.04
      vertex -0.0144997 0.0251142 0.04
      vertex 0.0531058 0.10474 0.04
    endloop
  endfacet
  facet normal 0 0 1
    outer loop
      vertex -0.0294995 0.0510947 0.04
      vertex -0.105058 -0.0210273 0.04
      vertex -0.0144997 0.0251142 0.04
    endloop
  endfacet
  facet normal -0 0 1
    outer loop
      vertex -0.11726 0.00637903 0.04
      vertex -0.105058 -0.0210273 0.04
      vertex -0.0294995 0.0510947 0.04
    endloop
  endfacet
  facet normal 0 0 1
    outer loop
      vertex -0.11726 0.00637903 0.04
      vertex -0.199944 -0.0574501 0.04
      vertex -0.105058 -0.0210273 0.04
    endloop
  endfacet
  facet normal -0 0 1
    outer loop
      vertex -0.209214 -0.0289193 0.04
      vertex -0.199944 -0.0574501 0.04
      vertex -0.11726 0.00637903 0.04
    endloop
  endfacet
  facet normal 0 0 1
    outer loop
      vertex -0.209214 -0.0289193 0.04
      vertex -0.298117 -0.0837557 0.04
      vertex -0.199944 -0.0574501 0.04
    endloop
  endfacet
  facet normal -0 0 1
    outer loop
      vertex -0.304354 -0.0544122 0.04
      vertex -0.298117 -0.0837557 0.04
      vertex -0.209214 -0.0289193 0.04
    endloop
  endfacet
  facet normal 0 0 1
    outer loop
      vertex -0.304354 -0.0544122 0.04
      vertex -0.398502 -0.0996556 0.04
      vertex -0.298117 -0.0837557 0.04
    endloop
  endfacet
  facet normal -0 0 1
    outer loop
      vertex -0.401638 -0.0698201 0.04
      vertex -0.398502 -0.0996556 0.04
      vertex -0.304354 -0.0544122 0.04
    endloop
  endfacet
  facet normal 0 0 1
    outer loop
      vertex -0.401638 -0.0698201 0.04
      vertex -0.499999 -0.104975 0.04
      vertex -0.398502 -0.0996556 0.04
    endloop
  endfacet
  facet normal 0 -0 1
    outer loop
      vertex -0.499999 -0.104975 0.04
      vertex -0.401638 -0.0698201 0.04
      vertex -0.5 -0.0749746 0.04
    endloop
  endfacet
  facet normal 0.0523376 -0.998629 0
    outer loop
      vertex -0.499999 -0.104975 0.00999928
      vertex -0.398502 -0.0996556 0.04
      vertex -0.499999 -0.104975 0.04
    endloop
  endfacet
  facet normal 0.0523376 -0.998629 0
    outer loop
      vertex -0.398502 -0.0996556 0.04
      vertex -0.499999 -0.104975 0.00999928
      vertex -0.398502 -0.0996556 0.00999928
    endloop
  endfacet
  facet normal 0 0 -1
    outer loop
      vertex 0.285555 0.295285 0.00999928
      vertex 0.31493 0.395525 0.00999928
      vertex 0.34091 0.380525 0.00999928
    endloop
  endfacet
  facet normal 0 0 -1
    outer loop
      vertex 0.285555 0.295285 0.00999928
      vertex 0.261285 0.312919 0.00999928
      vertex 0.31493 0.395525 0.00999928
    endloop
  endfacet
  facet normal 0 0 -1
    outer loop
      vertex 0.221594 0.216299 0.00999928
      vertex 0.261285 0.312919 0.00999928
      vertex 0.285555 0.295285 0.00999928
    endloop
  endfacet
  facet normal 0 0 -1
    outer loop
      vertex 0.221594 0.216299 0.00999928
      vertex 0.199299 0.236373 0.00999928
      vertex 0.261285 0.312919 0.00999928
    endloop
  endfacet
  facet normal 0 0 -1
    outer loop
      vertex 0.149725 0.144431 0.00999928
      vertex 0.199299 0.236373 0.00999928
      vertex 0.221594 0.216299 0.00999928
    endloop
  endfacet
  facet normal 0 0 -1
    outer loop
      vertex 0.149725 0.144431 0.00999928
      vertex 0.129652 0.166725 0.00999928
      vertex 0.199299 0.236373 0.00999928
    endloop
  endfacet
  facet normal 0 0 -1
    outer loop
      vertex 0.0707393 0.0804694 0.00999928
      vertex 0.129652 0.166725 0.00999928
      vertex 0.149725 0.144431 0.00999928
    endloop
  endfacet
  facet normal 0 0 -1
    outer loop
      vertex 0.0707393 0.0804694 0.00999928
      vertex 0.0531058 0.10474 0.00999928
      vertex 0.129652 0.166725 0.00999928
    endloop
  endfacet
  facet normal 0 0 -1
    outer loop
      vertex -0.0144997 0.0251142 0.00999928
      vertex 0.0531058 0.10474 0.00999928
      vertex 0.0707393 0.0804694 0.00999928
    endloop
  endfacet
  facet normal 0 0 -1
    outer loop
      vertex -0.0144997 0.0251142 0.00999928
      vertex -0.0294995 0.0510947 0.00999928
      vertex 0.0531058 0.10474 0.00999928
    endloop
  endfacet
  facet normal 0 0 -1
    outer loop
      vertex -0.105058 -0.0210273 0.00999928
      vertex -0.0294995 0.0510947 0.00999928
      vertex -0.0144997 0.0251142 0.00999928
    endloop
  endfacet
  facet normal 0 0 -1
    outer loop
      vertex -0.105058 -0.0210273 0.00999928
      vertex -0.11726 0.00637903 0.00999928
      vertex -0.0294995 0.0510947 0.00999928
    endloop
  endfacet
  facet normal 0 0 -1
    outer loop
      vertex -0.199944 -0.0574501 0.00999928
      vertex -0.11726 0.00637903 0.00999928
      vertex -0.105058 -0.0210273 0.00999928
    endloop
  endfacet
  facet normal 0 0 -1
    outer loop
      vertex -0.199944 -0.0574501 0.00999928
      vertex -0.209214 -0.0289193 0.00999928
      vertex -0.11726 0.00637903 0.00999928
    endloop
  endfacet
  facet normal 0 0 -1
    outer loop
      vertex -0.298117 -0.0837557 0.00999928
      vertex -0.209214 -0.0289193 0.00999928
      vertex -0.199944 -0.0574501 0.00999928
    endloop
  endfacet
  facet normal 0 0 -1
    outer loop
      vertex -0.298117 -0.0837557 0.00999928
      vertex -0.304354 -0.0544122 0.00999928
      vertex -0.209214 -0.0289193 0.00999928
    endloop
  endfacet
  facet normal 0 0 -1
    outer loop
      vertex -0.398502 -0.0996556 0.00999928
      vertex -0.304354 -0.0544122 0.00999928
      vertex -0.298117 -0.0837557 0.00999928
    endloop
  endfacet
  facet normal 0 0 -1
    outer loop
      vertex -0.398502 -0.0996556 0.00999928
      vertex -0.401638 -0.0698201 0.00999928
      vertex -0.304354 -0.0544122 0.00999928
    endloop
  endfacet
  facet normal 0 0 -1
    outer loop
      vertex -0.499999 -0.104975 0.00999928
      vertex -0.401638 -0.0698201 0.00999928
      vertex -0.398502 -0.0996556 0.00999928
    endloop
  endfacet
  facet normal 0 0 -1
    outer loop
      vertex -0.401638 -0.0698201 0.00999928
      vertex -0.499999 -0.104975 0.00999928
      vertex -0.5 -0.0749746 0.00999928
    endloop
  endfacet
  facet normal -0.0523316 0.99863 0
    outer loop
      vertex -0.401638 -0.0698201 0.00999928
      vertex -0.5 -0.0749746 0.04
      vertex -0.401638 -0.0698201 0.04
    endloop
  endfacet
  facet normal -0.0523316 0.99863 0
    outer loop
      vertex -0.5 -0.0749746 0.04
      vertex -0.401638 -0.0698201 0.00999928
      vertex -0.5 -0.0749746 0.00999928
    endloop
  endfacet
  facet normal 0.156439 -0.987688 0
    outer loop
      vertex -0.398502 -0.0996556 0.00999928
      vertex -0.298117 -0.0837557 0.04
      vertex -0.398502 -0.0996556 0.04
    endloop
  endfacet
  facet normal 0.156439 -0.987688 0
    outer loop
      vertex -0.298117 -0.0837557 0.04
      vertex -0.398502 -0.0996556 0.00999928
      vertex -0.298117 -0.0837557 0.00999928
    endloop
  endfacet
  facet normal -0.156431 0.987689 0
    outer loop
      vertex -0.304354 -0.0544122 0.00999928
      vertex -0.401638 -0.0698201 0.04
      vertex -0.304354 -0.0544122 0.04
    endloop
  endfacet
  facet normal -0.156431 0.987689 0
    outer loop
      vertex -0.401638 -0.0698201 0.04
      vertex -0.304354 -0.0544122 0.00999928
      vertex -0.401638 -0.0698201 0.00999928
    endloop
  endfacet
  facet normal 0.258821 -0.965925 0
    outer loop
      vertex -0.298117 -0.0837557 0.00999928
      vertex -0.199944 -0.0574501 0.04
      vertex -0.298117 -0.0837557 0.04
    endloop
  endfacet
  facet normal 0.258821 -0.965925 0
    outer loop
      vertex -0.199944 -0.0574501 0.04
      vertex -0.298117 -0.0837557 0.00999928
      vertex -0.199944 -0.0574501 0.00999928
    endloop
  endfacet
  facet normal -0.258821 0.965925 0
    outer loop
      vertex -0.209214 -0.0289193 0.00999928
      vertex -0.304354 -0.0544122 0.04
      vertex -0.209214 -0.0289193 0.04
    endloop
  endfacet
  facet normal -0.258821 0.965925 0
    outer loop
      vertex -0.304354 -0.0544122 0.04
      vertex -0.209214 -0.0289193 0.00999928
      vertex -0.304354 -0.0544122 0.00999928
    endloop
  endfacet
  facet normal 0.358363 -0.933582 0
    outer loop
      vertex -0.199944 -0.0574501 0.00999928
      vertex -0.105058 -0.0210273 0.04
      vertex -0.199944 -0.0574501 0.04
    endloop
  endfacet
  facet normal 0.358363 -0.933582 0
    outer loop
      vertex -0.105058 -0.0210273 0.04
      vertex -0.199944 -0.0574501 0.00999928
      vertex -0.105058 -0.0210273 0.00999928
    endloop
  endfacet
  facet normal -0.358372 0.933579 0
    outer loop
      vertex -0.11726 0.00637903 0.00999928
      vertex -0.209214 -0.0289193 0.04
      vertex -0.11726 0.00637903 0.04
    endloop
  endfacet
  facet normal -0.358372 0.933579 0
    outer loop
      vertex -0.209214 -0.0289193 0.04
      vertex -0.11726 0.00637903 0.00999928
      vertex -0.209214 -0.0289193 0.00999928
    endloop
  endfacet
  facet normal 0.453988 -0.891008 0
    outer loop
      vertex -0.105058 -0.0210273 0.00999928
      vertex -0.0144997 0.0251142 0.04
      vertex -0.105058 -0.0210273 0.04
    endloop
  endfacet
  facet normal 0.453988 -0.891008 0
    outer loop
      vertex -0.0144997 0.0251142 0.04
      vertex -0.105058 -0.0210273 0.00999928
      vertex -0.0144997 0.0251142 0.00999928
    endloop
  endfacet
  facet normal -0.453986 0.891009 0
    outer loop
      vertex -0.0294995 0.0510947 0.00999928
      vertex -0.11726 0.00637903 0.04
      vertex -0.0294995 0.0510947 0.04
    endloop
  endfacet
  facet normal -0.453986 0.891009 0
    outer loop
      vertex -0.11726 0.00637903 0.04
      vertex -0.0294995 0.0510947 0.00999928
      vertex -0.11726 0.00637903 0.00999928
    endloop
  endfacet
  facet normal 0.544641 -0.838669 0
    outer loop
      vertex -0.0144997 0.0251142 0.00999928
      vertex 0.0707393 0.0804694 0.04
      vertex -0.0144997 0.0251142 0.04
    endloop
  endfacet
  facet normal 0.544641 -0.838669 0
    outer loop
      vertex 0.0707393 0.0804694 0.04
      vertex -0.0144997 0.0251142 0.00999928
      vertex 0.0707393 0.0804694 0.00999928
    endloop
  endfacet
  facet normal -0.544645 0.838667 0
    outer loop
      vertex 0.0531058 0.10474 0.00999928
      vertex -0.0294995 0.0510947 0.04
      vertex 0.0531058 0.10474 0.04
    endloop
  endfacet
  facet normal -0.544645 0.838667 0
    outer loop
      vertex -0.0294995 0.0510947 0.04
      vertex 0.0531058 0.10474 0.00999928
      vertex -0.0294995 0.0510947 0.00999928
    endloop
  endfacet
  facet normal 0.629322 -0.777145 0
    outer loop
      vertex 0.0707393 0.0804694 0.00999928
      vertex 0.149725 0.144431 0.04
      vertex 0.0707393 0.0804694 0.04
    endloop
  endfacet
  facet normal 0.629322 -0.777145 0
    outer loop
      vertex 0.149725 0.144431 0.04
      vertex 0.0707393 0.0804694 0.00999928
      vertex 0.149725 0.144431 0.00999928
    endloop
  endfacet
  facet normal -0.629315 0.77715 0
    outer loop
      vertex 0.129652 0.166725 0.00999928
      vertex 0.0531058 0.10474 0.04
      vertex 0.129652 0.166725 0.04
    endloop
  endfacet
  facet normal -0.629315 0.77715 0
    outer loop
      vertex 0.0531058 0.10474 0.04
      vertex 0.129652 0.166725 0.00999928
      vertex 0.0531058 0.10474 0.00999928
    endloop
  endfacet
  facet normal 0.707102 -0.707112 0
    outer loop
      vertex 0.149725 0.144431 0.00999928
      vertex 0.221594 0.216299 0.04
      vertex 0.149725 0.144431 0.04
    endloop
  endfacet
  facet normal 0.707102 -0.707112 0
    outer loop
      vertex 0.221594 0.216299 0.04
      vertex 0.149725 0.144431 0.00999928
      vertex 0.221594 0.216299 0.00999928
    endloop
  endfacet
  facet normal -0.707112 0.707102 0
    outer loop
      vertex 0.129652 0.166725 0.00999928
      vertex 0.199299 0.236373 0.04
      vertex 0.199299 0.236373 0.00999928
    endloop
  endfacet
  facet normal -0.707112 0.707102 0
    outer loop
      vertex 0.199299 0.236373 0.04
      vertex 0.129652 0.166725 0.00999928
      vertex 0.129652 0.166725 0.04
    endloop
  endfacet
  facet normal 0.777149 -0.629317 0
    outer loop
      vertex 0.221594 0.216299 0.04
      vertex 0.285555 0.295285 0.00999928
      vertex 0.285555 0.295285 0.04
    endloop
  endfacet
  facet normal 0.777149 -0.629317 0
    outer loop
      vertex 0.285555 0.295285 0.00999928
      vertex 0.221594 0.216299 0.04
      vertex 0.221594 0.216299 0.00999928
    endloop
  endfacet
  facet normal -0.777145 0.629322 0
    outer loop
      vertex 0.199299 0.236373 0.00999928
      vertex 0.261285 0.312919 0.04
      vertex 0.261285 0.312919 0.00999928
    endloop
  endfacet
  facet normal -0.777145 0.629322 0
    outer loop
      vertex 0.261285 0.312919 0.04
      vertex 0.199299 0.236373 0.00999928
      vertex 0.199299 0.236373 0.04
    endloop
  endfacet
  facet normal 0.838673 -0.544636 0
    outer loop
      vertex 0.285555 0.295285 0.04
      vertex 0.34091 0.380525 0.00999928
      vertex 0.34091 0.380525 0.04
    endloop
  endfacet
  facet normal 0.838673 -0.544636 0
    outer loop
      vertex 0.34091 0.380525 0.00999928
      vertex 0.285555 0.295285 0.04
      vertex 0.285555 0.295285 0.00999928
    endloop
  endfacet
  facet normal -0.83867 0.544639 0
    outer loop
      vertex 0.261285 0.312919 0.00999928
      vertex 0.31493 0.395525 0.04
      vertex 0.31493 0.395525 0.00999928
    endloop
  endfacet
  facet normal -0.83867 0.544639 0
    outer loop
      vertex 0.31493 0.395525 0.04
      vertex 0.261285 0.312919 0.00999928
      vertex 0.261285 0.312919 0.04
    endloop
  endfacet
  facet normal -1 0 0
    outer loop
      vertex -0.499999 0.0750257 0.00999928
      vertex -0.499999 0.105025 0.04
      vertex -0.499999 0.105025 0.00999928
    endloop
  endfacet
  facet normal -1 -0 0
    outer loop
      vertex -0.499999 0.105025 0.04
      vertex -0.499999 0.0750257 0.00999928
      vertex -0.499999 0.0750257 0.04
    endloop
  endfacet
  facet normal 0.500025 0.866011 -0
    outer loop
      vertex 0.185025 0.470525 0.00999928
      vertex 0.159046 0.485525 0.04
      vertex 0.185025 0.470525 0.04
    endloop
  endfacet
  facet normal 0.500025 0.866011 0
    outer loop
      vertex 0.159046 0.485525 0.04
      vertex 0.185025 0.470525 0.00999928
      vertex 0.159046 0.485525 0.00999928
    endloop
  endfacet
  facet normal 0 0 1
    outer loop
      vertex 0.159046 0.485525 0.04
      vertex 0.139932 0.401086 0.04
      vertex 0.185025 0.470525 0.04
    endloop
  endfacet
  facet normal -0 0 1
    outer loop
      vertex 0.115662 0.41872 0.04
      vertex 0.139932 0.401086 0.04
      vertex 0.159046 0.485525 0.04
    endloop
  endfacet
  facet normal 0 0 1
    outer loop
      vertex 0.115662 0.41872 0.04
      vertex 0.0878269 0.336742 0.04
      vertex 0.139932 0.401086 0.04
    endloop
  endfacet
  facet normal -0 0 1
    outer loop
      vertex 0.0655335 0.356816 0.04
      vertex 0.0878269 0.336742 0.04
      vertex 0.115662 0.41872 0.04
    endloop
  endfacet
  facet normal 0 0 1
    outer loop
      vertex 0.0655335 0.356816 0.04
      vertex 0.0292817 0.278197 0.04
      vertex 0.0878269 0.336742 0.04
    endloop
  endfacet
  facet normal -0 0 1
    outer loop
      vertex 0.00920802 0.300492 0.04
      vertex 0.0292817 0.278197 0.04
      vertex 0.0655335 0.356816 0.04
    endloop
  endfacet
  facet normal 0 0 1
    outer loop
      vertex 0.00920802 0.300492 0.04
      vertex -0.0350621 0.226093 0.04
      vertex 0.0292817 0.278197 0.04
    endloop
  endfacet
  facet normal -0 0 1
    outer loop
      vertex -0.0526956 0.250363 0.04
      vertex -0.0350621 0.226093 0.04
      vertex 0.00920802 0.300492 0.04
    endloop
  endfacet
  facet normal 0 0 1
    outer loop
      vertex -0.0526956 0.250363 0.04
      vertex -0.1045 0.180999 0.04
      vertex -0.0350621 0.226093 0.04
    endloop
  endfacet
  facet normal -0 0 1
    outer loop
      vertex -0.1195 0.20698 0.04
      vertex -0.1045 0.180999 0.04
      vertex -0.0526956 0.250363 0.04
    endloop
  endfacet
  facet normal 0 0 1
    outer loop
      vertex -0.1195 0.20698 0.04
      vertex -0.178271 0.143411 0.04
      vertex -0.1045 0.180999 0.04
    endloop
  endfacet
  facet normal -0 0 1
    outer loop
      vertex -0.190473 0.170817 0.04
      vertex -0.178271 0.143411 0.04
      vertex -0.1195 0.20698 0.04
    endloop
  endfacet
  facet normal 0 0 1
    outer loop
      vertex -0.190473 0.170817 0.04
      vertex -0.255567 0.11374 0.04
      vertex -0.178271 0.143411 0.04
    endloop
  endfacet
  facet normal -0 0 1
    outer loop
      vertex -0.264838 0.142272 0.04
      vertex -0.255567 0.11374 0.04
      vertex -0.190473 0.170817 0.04
    endloop
  endfacet
  facet normal 0 0 1
    outer loop
      vertex -0.264838 0.142272 0.04
      vertex -0.335542 0.0923104 0.04
      vertex -0.255567 0.11374 0.04
    endloop
  endfacet
  facet normal -0 0 1
    outer loop
      vertex -0.341779 0.121654 0.04
      vertex -0.335542 0.0923104 0.04
      vertex -0.264838 0.142272 0.04
    endloop
  endfacet
  facet normal 0 0 1
    outer loop
      vertex -0.341779 0.121654 0.04
      vertex -0.417317 0.0793584 0.04
      vertex -0.335542 0.0923104 0.04
    endloop
  endfacet
  facet normal -0 0 1
    outer loop
      vertex -0.420453 0.109194 0.04
      vertex -0.417317 0.0793584 0.04
      vertex -0.341779 0.121654 0.04
    endloop
  endfacet
  facet normal 0 0 1
    outer loop
      vertex -0.420453 0.109194 0.04
      vertex -0.499999 0.0750257 0.04
      vertex -0.417317 0.0793584 0.04
    endloop
  endfacet
  facet normal 0 0 1
    outer loop
      vertex -0.499999 0.0750257 0.04
      vertex -0.420453 0.109194 0.04
      vertex -0.499999 0.105025 0.04
    endloop
  endfacet
  facet normal 0.0523302 -0.99863 0
    outer loop
      vertex -0.499999 0.0750257 0.00999928
      vertex -0.417317 0.0793584 0.04
      vertex -0.499999 0.0750257 0.04
    endloop
  endfacet
  facet normal 0.0523302 -0.99863 0
    outer loop
      vertex -0.417317 0.0793584 0.04
      vertex -0.499999 0.0750257 0.00999928
      vertex -0.417317 0.0793584 0.00999928
    endloop
  endfacet
  facet normal 0 0 -1
    outer loop
      vertex 0.139932 0.401086 0.00999928
      vertex 0.159046 0.485525 0.00999928
      vertex 0.185025 0.470525 0.00999928
    endloop
  endfacet
  facet normal 0 0 -1
    outer loop
      vertex 0.139932 0.401086 0.00999928
      vertex 0.115662 0.41872 0.00999928
      vertex 0.159046 0.485525 0.00999928
    endloop
  endfacet
  facet normal 0 0 -1
    outer loop
      vertex 0.0878269 0.336742 0.00999928
      vertex 0.115662 0.41872 0.00999928
      vertex 0.139932 0.401086 0.00999928
    endloop
  endfacet
  facet normal 0 0 -1
    outer loop
      vertex 0.0878269 0.336742 0.00999928
      vertex 0.0655335 0.356816 0.00999928
      vertex 0.115662 0.41872 0.00999928
    endloop
  endfacet
  facet normal 0 0 -1
    outer loop
      vertex 0.0292817 0.278197 0.00999928
      vertex 0.0655335 0.356816 0.00999928
      vertex 0.0878269 0.336742 0.00999928
    endloop
  endfacet
  facet normal 0 0 -1
    outer loop
      vertex 0.0292817 0.278197 0.00999928
      vertex 0.00920802 0.300492 0.00999928
      vertex 0.0655335 0.356816 0.00999928
    endloop
  endfacet
  facet normal 0 0 -1
    outer loop
      vertex -0.0350621 0.226093 0.00999928
      vertex 0.00920802 0.300492 0.00999928
      vertex 0.0292817 0.278197 0.00999928
    endloop
  endfacet
  facet normal 0 0 -1
    outer loop
      vertex -0.0350621 0.226093 0.00999928
      vertex -0.0526956 0.250363 0.00999928
      vertex 0.00920802 0.300492 0.00999928
    endloop
  endfacet
  facet normal 0 0 -1
    outer loop
      vertex -0.1045 0.180999 0.00999928
      vertex -0.0526956 0.250363 0.00999928
      vertex -0.0350621 0.226093 0.00999928
    endloop
  endfacet
  facet normal 0 0 -1
    outer loop
      vertex -0.1045 0.180999 0.00999928
      vertex -0.1195 0.20698 0.00999928
      vertex -0.0526956 0.250363 0.00999928
    endloop
  endfacet
  facet normal 0 0 -1
    outer loop
      vertex -0.178271 0.143411 0.00999928
      vertex -0.1195 0.20698 0.00999928
      vertex -0.1045 0.180999 0.00999928
    endloop
  endfacet
  facet normal 0 0 -1
    outer loop
      vertex -0.178271 0.143411 0.00999928
      vertex -0.190473 0.170817 0.00999928
      vertex -0.1195 0.20698 0.00999928
    endloop
  endfacet
  facet normal 0 0 -1
    outer loop
      vertex -0.255567 0.11374 0.00999928
      vertex -0.190473 0.170817 0.00999928
      vertex -0.178271 0.143411 0.00999928
    endloop
  endfacet
  facet normal 0 0 -1
    outer loop
      vertex -0.255567 0.11374 0.00999928
      vertex -0.264838 0.142272 0.00999928
      vertex -0.190473 0.170817 0.00999928
    endloop
  endfacet
  facet normal 0 0 -1
    outer loop
      vertex -0.335542 0.0923104 0.00999928
      vertex -0.264838 0.142272 0.00999928
      vertex -0.255567 0.11374 0.00999928
    endloop
  endfacet
  facet normal 0 0 -1
    outer loop
      vertex -0.335542 0.0923104 0.00999928
      vertex -0.341779 0.121654 0.00999928
      vertex -0.264838 0.142272 0.00999928
    endloop
  endfacet
  facet normal 0 0 -1
    outer loop
      vertex -0.417317 0.0793584 0.00999928
      vertex -0.341779 0.121654 0.00999928
      vertex -0.335542 0.0923104 0.00999928
    endloop
  endfacet
  facet normal 0 0 -1
    outer loop
      vertex -0.417317 0.0793584 0.00999928
      vertex -0.420453 0.109194 0.00999928
      vertex -0.341779 0.121654 0.00999928
    endloop
  endfacet
  facet normal 0 0 -1
    outer loop
      vertex -0.499999 0.0750257 0.00999928
      vertex -0.420453 0.109194 0.00999928
      vertex -0.417317 0.0793584 0.00999928
    endloop
  endfacet
  facet normal 0 0 -1
    outer loop
      vertex -0.420453 0.109194 0.00999928
      vertex -0.499999 0.0750257 0.00999928
      vertex -0.499999 0.105025 0.00999928
    endloop
  endfacet
  facet normal -0.0523381 0.998629 0
    outer loop
      vertex -0.420453 0.109194 0.00999928
      vertex -0.499999 0.105025 0.04
      vertex -0.420453 0.109194 0.04
    endloop
  endfacet
  facet normal -0.0523381 0.998629 0
    outer loop
      vertex -0.499999 0.105025 0.04
      vertex -0.420453 0.109194 0.00999928
      vertex -0.499999 0.105025 0.00999928
    endloop
  endfacet
  facet normal 0.156436 -0.987688 0
    outer loop
      vertex -0.417317 0.0793584 0.00999928
      vertex -0.335542 0.0923104 0.04
      vertex -0.417317 0.0793584 0.04
    endloop
  endfacet
  facet normal 0.156436 -0.987688 0
    outer loop
      vertex -0.335542 0.0923104 0.04
      vertex -0.417317 0.0793584 0.00999928
      vertex -0.335542 0.0923104 0.00999928
    endloop
  endfacet
  facet normal -0.156425 0.98769 0
    outer loop
      vertex -0.341779 0.121654 0.00999928
      vertex -0.420453 0.109194 0.04
      vertex -0.341779 0.121654 0.04
    endloop
  endfacet
  facet normal -0.156425 0.98769 0
    outer loop
      vertex -0.420453 0.109194 0.04
      vertex -0.341779 0.121654 0.00999928
      vertex -0.420453 0.109194 0.00999928
    endloop
  endfacet
  facet normal 0.258823 -0.965925 0
    outer loop
      vertex -0.335542 0.0923104 0.00999928
      vertex -0.255567 0.11374 0.04
      vertex -0.335542 0.0923104 0.04
    endloop
  endfacet
  facet normal 0.258823 -0.965925 0
    outer loop
      vertex -0.255567 0.11374 0.04
      vertex -0.335542 0.0923104 0.00999928
      vertex -0.255567 0.11374 0.00999928
    endloop
  endfacet
  facet normal -0.258839 0.96592 0
    outer loop
      vertex -0.264838 0.142272 0.00999928
      vertex -0.341779 0.121654 0.04
      vertex -0.264838 0.142272 0.04
    endloop
  endfacet
  facet normal -0.258839 0.96592 0
    outer loop
      vertex -0.341779 0.121654 0.04
      vertex -0.264838 0.142272 0.00999928
      vertex -0.341779 0.121654 0.00999928
    endloop
  endfacet
  facet normal 0.358366 -0.933581 0
    outer loop
      vertex -0.255567 0.11374 0.00999928
      vertex -0.178271 0.143411 0.04
      vertex -0.255567 0.11374 0.04
    endloop
  endfacet
  facet normal 0.358366 -0.933581 0
    outer loop
      vertex -0.178271 0.143411 0.04
      vertex -0.255567 0.11374 0.00999928
      vertex -0.178271 0.143411 0.00999928
    endloop
  endfacet
  facet normal -0.358356 0.933585 0
    outer loop
      vertex -0.190473 0.170817 0.00999928
      vertex -0.264838 0.142272 0.04
      vertex -0.190473 0.170817 0.04
    endloop
  endfacet
  facet normal -0.358356 0.933585 0
    outer loop
      vertex -0.264838 0.142272 0.04
      vertex -0.190473 0.170817 0.00999928
      vertex -0.264838 0.142272 0.00999928
    endloop
  endfacet
  facet normal 0.453989 -0.891008 0
    outer loop
      vertex -0.178271 0.143411 0.00999928
      vertex -0.1045 0.180999 0.04
      vertex -0.178271 0.143411 0.04
    endloop
  endfacet
  facet normal 0.453989 -0.891008 0
    outer loop
      vertex -0.1045 0.180999 0.04
      vertex -0.178271 0.143411 0.00999928
      vertex -0.1045 0.180999 0.00999928
    endloop
  endfacet
  facet normal -0.453995 0.891004 0
    outer loop
      vertex -0.1195 0.20698 0.00999928
      vertex -0.190473 0.170817 0.04
      vertex -0.1195 0.20698 0.04
    endloop
  endfacet
  facet normal -0.453995 0.891004 0
    outer loop
      vertex -0.190473 0.170817 0.04
      vertex -0.1195 0.20698 0.00999928
      vertex -0.190473 0.170817 0.00999928
    endloop
  endfacet
  facet normal 0.544643 -0.838668 0
    outer loop
      vertex -0.1045 0.180999 0.00999928
      vertex -0.0350621 0.226093 0.04
      vertex -0.1045 0.180999 0.04
    endloop
  endfacet
  facet normal 0.544643 -0.838668 0
    outer loop
      vertex -0.0350621 0.226093 0.04
      vertex -0.1045 0.180999 0.00999928
      vertex -0.0350621 0.226093 0.00999928
    endloop
  endfacet
  facet normal -0.544637 0.838672 0
    outer loop
      vertex -0.0526956 0.250363 0.00999928
      vertex -0.1195 0.20698 0.04
      vertex -0.0526956 0.250363 0.04
    endloop
  endfacet
  facet normal -0.544637 0.838672 0
    outer loop
      vertex -0.1195 0.20698 0.04
      vertex -0.0526956 0.250363 0.00999928
      vertex -0.1195 0.20698 0.00999928
    endloop
  endfacet
  facet normal 0.629316 -0.777149 0
    outer loop
      vertex -0.0350621 0.226093 0.00999928
      vertex 0.0292817 0.278197 0.04
      vertex -0.0350621 0.226093 0.04
    endloop
  endfacet
  facet normal 0.629316 -0.777149 0
    outer loop
      vertex 0.0292817 0.278197 0.04
      vertex -0.0350621 0.226093 0.00999928
      vertex 0.0292817 0.278197 0.00999928
    endloop
  endfacet
  facet normal -0.629324 0.777143 0
    outer loop
      vertex 0.00920802 0.300492 0.00999928
      vertex -0.0526956 0.250363 0.04
      vertex 0.00920802 0.300492 0.04
    endloop
  endfacet
  facet normal -0.629324 0.777143 0
    outer loop
      vertex -0.0526956 0.250363 0.04
      vertex 0.00920802 0.300492 0.00999928
      vertex -0.0526956 0.250363 0.00999928
    endloop
  endfacet
  facet normal 0.707106 -0.707108 0
    outer loop
      vertex 0.0292817 0.278197 0.04
      vertex 0.0878269 0.336742 0.00999928
      vertex 0.0878269 0.336742 0.04
    endloop
  endfacet
  facet normal 0.707106 -0.707108 0
    outer loop
      vertex 0.0878269 0.336742 0.00999928
      vertex 0.0292817 0.278197 0.04
      vertex 0.0292817 0.278197 0.00999928
    endloop
  endfacet
  facet normal -0.707097 0.707116 0
    outer loop
      vertex 0.0655335 0.356816 0.00999928
      vertex 0.00920802 0.300492 0.04
      vertex 0.0655335 0.356816 0.04
    endloop
  endfacet
  facet normal -0.707097 0.707116 0
    outer loop
      vertex 0.00920802 0.300492 0.04
      vertex 0.0655335 0.356816 0.00999928
      vertex 0.00920802 0.300492 0.00999928
    endloop
  endfacet
  facet normal 0.777144 -0.629323 0
    outer loop
      vertex 0.0878269 0.336742 0.04
      vertex 0.139932 0.401086 0.00999928
      vertex 0.139932 0.401086 0.04
    endloop
  endfacet
  facet normal 0.777144 -0.629323 0
    outer loop
      vertex 0.139932 0.401086 0.00999928
      vertex 0.0878269 0.336742 0.04
      vertex 0.0878269 0.336742 0.00999928
    endloop
  endfacet
  facet normal -0.777148 0.629318 0
    outer loop
      vertex 0.0655335 0.356816 0.00999928
      vertex 0.115662 0.41872 0.04
      vertex 0.115662 0.41872 0.00999928
    endloop
  endfacet
  facet normal -0.777148 0.629318 0
    outer loop
      vertex 0.115662 0.41872 0.04
      vertex 0.0655335 0.356816 0.00999928
      vertex 0.0655335 0.356816 0.04
    endloop
  endfacet
  facet normal 0.838677 -0.544629 0
    outer loop
      vertex 0.139932 0.401086 0.04
      vertex 0.185025 0.470525 0.00999928
      vertex 0.185025 0.470525 0.04
    endloop
  endfacet
  facet normal 0.838677 -0.544629 0
    outer loop
      vertex 0.185025 0.470525 0.00999928
      vertex 0.139932 0.401086 0.04
      vertex 0.139932 0.401086 0.00999928
    endloop
  endfacet
  facet normal -0.838669 0.544642 0
    outer loop
      vertex 0.115662 0.41872 0.00999928
      vertex 0.159046 0.485525 0.04
      vertex 0.159046 0.485525 0.00999928
    endloop
  endfacet
  facet normal -0.838669 0.544642 0
    outer loop
      vertex 0.159046 0.485525 0.04
      vertex 0.115662 0.41872 0.00999928
      vertex 0.115662 0.41872 0.04
    endloop
  endfacet
endsolid OpenSCAD_Model
