solid OpenSCAD_Model
  facet normal 1 0 0
    outer loop
      vertex 0.105 0.5 0.04
      vertex 0.105 0.45 0.0299997
      vertex 0.105 0.5 0.0299997
    endloop
  endfacet
  facet normal 1 0 0
    outer loop
      vertex 0.105 0.45 0.0299997
      vertex 0.105 0.299999 0.0299997
      vertex 0.105 0.45 0.00999928
    endloop
  endfacet
  facet normal 1 0 0
    outer loop
      vertex 0.105 0.5 0.04
      vertex 0.105 0.299999 0.0299997
      vertex 0.105 0.45 0.0299997
    endloop
  endfacet
  facet normal 1 0 0
    outer loop
      vertex 0.105 0.5 0.04
      vertex 0.105 0.2 0.0299997
      vertex 0.105 0.299999 0.0299997
    endloop
  endfacet
  facet normal 1 0 0
    outer loop
      vertex 0.105 0.2 0.0299997
      vertex 0.105 0.0499992 0.0299997
      vertex 0.105 0.2 0.00999928
    endloop
  endfacet
  facet normal 1 0 0
    outer loop
      vertex 0.105 0.5 0.04
      vertex 0.105 0.0499992 0.0299997
      vertex 0.105 0.2 0.0299997
    endloop
  endfacet
  facet normal 1 0 0
    outer loop
      vertex 0.105 0.5 0.04
      vertex 0.105 -0.0499992 0.0299997
      vertex 0.105 0.0499992 0.0299997
    endloop
  endfacet
  facet normal 1 0 0
    outer loop
      vertex 0.105 -0.0499992 0.0299997
      vertex 0.105 -0.2 0.0299997
      vertex 0.105 -0.0499992 0.00999928
    endloop
  endfacet
  facet normal 1 -0 0
    outer loop
      vertex 0.105 -0.5 0.04
      vertex 0.105 -0.0499992 0.0299997
      vertex 0.105 0.5 0.04
    endloop
  endfacet
  facet normal 1 0 0
    outer loop
      vertex 0.105 -0.0499992 0.0299997
      vertex 0.105 -0.5 0.04
      vertex 0.105 -0.2 0.0299997
    endloop
  endfacet
  facet normal 1 0 0
    outer loop
      vertex 0.105 -0.299999 0.0299997
      vertex 0.105 -0.45 0.0299997
      vertex 0.105 -0.299999 0.00999928
    endloop
  endfacet
  facet normal 1 0 0
    outer loop
      vertex 0.105 -0.2 0.0299997
      vertex 0.105 -0.5 0.04
      vertex 0.105 -0.299999 0.0299997
    endloop
  endfacet
  facet normal 1 0 0
    outer loop
      vertex 0.105 -0.299999 0.0299997
      vertex 0.105 -0.5 0.04
      vertex 0.105 -0.45 0.0299997
    endloop
  endfacet
  facet normal 1 0 0
    outer loop
      vertex 0.105 -0.45 0.0299997
      vertex 0.105 -0.5 0.04
      vertex 0.105 -0.5 0.0299997
    endloop
  endfacet
  facet normal 1 0 0
    outer loop
      vertex 0.105 0.45 0.00999928
      vertex 0.105 0.299999 0.0299997
      vertex 0.105 0.299999 0.00999928
    endloop
  endfacet
  facet normal 1 0 0
    outer loop
      vertex 0.105 0.2 0.00999928
      vertex 0.105 0.0499992 0.0299997
      vertex 0.105 0.0499992 0.00999928
    endloop
  endfacet
  facet normal 1 0 0
    outer loop
      vertex 0.105 -0.0499992 0.00999928
      vertex 0.105 -0.2 0.0299997
      vertex 0.105 -0.2 0.00999928
    endloop
  endfacet
  facet normal 1 0 0
    outer loop
      vertex 0.105 -0.299999 0.00999928
      vertex 0.105 -0.45 0.0299997
      vertex 0.105 -0.45 0.00999928
    endloop
  endfacet
  facet normal -0 0 1
    outer loop
      vertex 0.0749998 0.5 0.04
      vertex 0.105 -0.5 0.04
      vertex 0.105 0.5 0.04
    endloop
  endfacet
  facet normal 0 0 1
    outer loop
      vertex 0.105 -0.5 0.04
      vertex 0.0749998 0.5 0.04
      vertex 0.0749998 -0.5 0.04
    endloop
  endfacet
  facet normal 0 0 -1
    outer loop
      vertex 0.0749998 0.299999 0.00999928
      vertex 0.105 0.45 0.00999928
      vertex 0.105 0.299999 0.00999928
    endloop
  endfacet
  facet normal -0 0 -1
    outer loop
      vertex 0.105 0.45 0.00999928
      vertex 0.0749998 0.299999 0.00999928
      vertex 0.0749998 0.45 0.00999928
    endloop
  endfacet
  facet normal 0 0 -1
    outer loop
      vertex 0.0749998 -0.45 0.00999928
      vertex 0.105 -0.299999 0.00999928
      vertex 0.105 -0.45 0.00999928
    endloop
  endfacet
  facet normal -0 0 -1
    outer loop
      vertex 0.105 -0.299999 0.00999928
      vertex 0.0749998 -0.45 0.00999928
      vertex 0.0749998 -0.299999 0.00999928
    endloop
  endfacet
  facet normal 0 0 -1
    outer loop
      vertex 0.0749998 0.0499992 0.00999928
      vertex 0.105 0.2 0.00999928
      vertex 0.105 0.0499992 0.00999928
    endloop
  endfacet
  facet normal -0 0 -1
    outer loop
      vertex 0.105 0.2 0.00999928
      vertex 0.0749998 0.0499992 0.00999928
      vertex 0.0749998 0.2 0.00999928
    endloop
  endfacet
  facet normal 0 0 -1
    outer loop
      vertex 0.0749998 -0.2 0.00999928
      vertex 0.105 -0.0499992 0.00999928
      vertex 0.105 -0.2 0.00999928
    endloop
  endfacet
  facet normal -0 0 -1
    outer loop
      vertex 0.105 -0.0499992 0.00999928
      vertex 0.0749998 -0.2 0.00999928
      vertex 0.0749998 -0.0499992 0.00999928
    endloop
  endfacet
  facet normal -1 0 0
    outer loop
      vertex 0.0749998 -0.299999 0.00999928
      vertex 0.0749998 -0.45 0.00999928
      vertex 0.0749998 -0.299999 0.0299997
    endloop
  endfacet
  facet normal -1 0 0
    outer loop
      vertex 0.0749998 -0.0499992 0.00999928
      vertex 0.0749998 -0.2 0.00999928
      vertex 0.0749998 -0.0499992 0.0299997
    endloop
  endfacet
  facet normal -1 0 0
    outer loop
      vertex 0.0749998 0.2 0.00999928
      vertex 0.0749998 0.0499992 0.00999928
      vertex 0.0749998 0.2 0.0299997
    endloop
  endfacet
  facet normal -1 0 0
    outer loop
      vertex 0.0749998 0.45 0.00999928
      vertex 0.0749998 0.299999 0.00999928
      vertex 0.0749998 0.45 0.0299997
    endloop
  endfacet
  facet normal -1 0 0
    outer loop
      vertex 0.0749998 0.45 0.0299997
      vertex 0.0749998 0.5 0.04
      vertex 0.0749998 0.5 0.0299997
    endloop
  endfacet
  facet normal -1 0 0
    outer loop
      vertex 0.0749998 0.299999 0.0299997
      vertex 0.0749998 0.45 0.0299997
      vertex 0.0749998 0.299999 0.00999928
    endloop
  endfacet
  facet normal -1 0 0
    outer loop
      vertex 0.0749998 0.45 0.0299997
      vertex 0.0749998 0.299999 0.0299997
      vertex 0.0749998 0.5 0.04
    endloop
  endfacet
  facet normal -1 0 0
    outer loop
      vertex 0.0749998 0.2 0.0299997
      vertex 0.0749998 0.5 0.04
      vertex 0.0749998 0.299999 0.0299997
    endloop
  endfacet
  facet normal -1 0 0
    outer loop
      vertex 0.0749998 0.0499992 0.0299997
      vertex 0.0749998 0.2 0.0299997
      vertex 0.0749998 0.0499992 0.00999928
    endloop
  endfacet
  facet normal -1 0 0
    outer loop
      vertex 0.0749998 0.0499992 0.0299997
      vertex 0.0749998 0.5 0.04
      vertex 0.0749998 0.2 0.0299997
    endloop
  endfacet
  facet normal -1 0 0
    outer loop
      vertex 0.0749998 -0.0499992 0.0299997
      vertex 0.0749998 0.5 0.04
      vertex 0.0749998 0.0499992 0.0299997
    endloop
  endfacet
  facet normal -1 0 0
    outer loop
      vertex 0.0749998 -0.2 0.0299997
      vertex 0.0749998 -0.0499992 0.0299997
      vertex 0.0749998 -0.2 0.00999928
    endloop
  endfacet
  facet normal -1 0 0
    outer loop
      vertex 0.0749998 -0.5 0.04
      vertex 0.0749998 -0.0499992 0.0299997
      vertex 0.0749998 -0.2 0.0299997
    endloop
  endfacet
  facet normal -1 0 0
    outer loop
      vertex 0.0749998 -0.5 0.04
      vertex 0.0749998 -0.2 0.0299997
      vertex 0.0749998 -0.299999 0.0299997
    endloop
  endfacet
  facet normal -1 0 0
    outer loop
      vertex 0.0749998 -0.45 0.0299997
      vertex 0.0749998 -0.299999 0.0299997
      vertex 0.0749998 -0.45 0.00999928
    endloop
  endfacet
  facet normal -1 0 0
    outer loop
      vertex 0.0749998 -0.5 0.04
      vertex 0.0749998 -0.299999 0.0299997
      vertex 0.0749998 -0.45 0.0299997
    endloop
  endfacet
  facet normal -1 0 0
    outer loop
      vertex 0.0749998 -0.5 0.04
      vertex 0.0749998 -0.45 0.0299997
      vertex 0.0749998 -0.5 0.0299997
    endloop
  endfacet
  facet normal -1 0 0
    outer loop
      vertex 0.0749998 -0.0499992 0.0299997
      vertex 0.0749998 -0.5 0.04
      vertex 0.0749998 0.5 0.04
    endloop
  endfacet
  facet normal 0 1 -0
    outer loop
      vertex 0.15 0.5 0
      vertex 0.105 0.5 0.0299997
      vertex 0.15 0.5 0.0299997
    endloop
  endfacet
  facet normal 0 1 0
    outer loop
      vertex 0.105 0.5 0.0299997
      vertex 0.15 0.5 0
      vertex 0.0749998 0.5 0.0299997
    endloop
  endfacet
  facet normal 0 1 0
    outer loop
      vertex 0.0749998 0.5 0.0299997
      vertex 0.15 0.5 0
      vertex -0.0749998 0.5 0.0299997
    endloop
  endfacet
  facet normal 0 1 0
    outer loop
      vertex -0.15 0.5 0
      vertex -0.0749998 0.5 0.0299997
      vertex 0.15 0.5 0
    endloop
  endfacet
  facet normal 0 1 0
    outer loop
      vertex -0.0749998 0.5 0.0299997
      vertex -0.15 0.5 0
      vertex -0.105 0.5 0.0299997
    endloop
  endfacet
  facet normal 0 1 0
    outer loop
      vertex -0.105 0.5 0.0299997
      vertex -0.15 0.5 0
      vertex -0.15 0.5 0.0299997
    endloop
  endfacet
  facet normal 0 1 -0
    outer loop
      vertex 0.105 0.5 0.0299997
      vertex 0.0749998 0.5 0.04
      vertex 0.105 0.5 0.04
    endloop
  endfacet
  facet normal 0 1 0
    outer loop
      vertex 0.0749998 0.5 0.04
      vertex 0.105 0.5 0.0299997
      vertex 0.0749998 0.5 0.0299997
    endloop
  endfacet
  facet normal 0 1 -0
    outer loop
      vertex -0.0749998 0.5 0.0299997
      vertex -0.105 0.5 0.04
      vertex -0.0749998 0.5 0.04
    endloop
  endfacet
  facet normal 0 1 0
    outer loop
      vertex -0.105 0.5 0.04
      vertex -0.0749998 0.5 0.0299997
      vertex -0.105 0.5 0.0299997
    endloop
  endfacet
  facet normal 0 -1 0
    outer loop
      vertex -0.15 -0.5 0
      vertex -0.105 -0.5 0.0299997
      vertex -0.15 -0.5 0.0299997
    endloop
  endfacet
  facet normal 0 -1 -0
    outer loop
      vertex -0.105 -0.5 0.0299997
      vertex -0.15 -0.5 0
      vertex -0.0749998 -0.5 0.0299997
    endloop
  endfacet
  facet normal 0 -1 -0
    outer loop
      vertex -0.0749998 -0.5 0.0299997
      vertex -0.15 -0.5 0
      vertex 0.0749998 -0.5 0.0299997
    endloop
  endfacet
  facet normal 0 -1 0
    outer loop
      vertex 0.15 -0.5 0
      vertex 0.0749998 -0.5 0.0299997
      vertex -0.15 -0.5 0
    endloop
  endfacet
  facet normal 0 -1 0
    outer loop
      vertex 0.0749998 -0.5 0.0299997
      vertex 0.15 -0.5 0
      vertex 0.105 -0.5 0.0299997
    endloop
  endfacet
  facet normal 0 -1 0
    outer loop
      vertex 0.105 -0.5 0.0299997
      vertex 0.15 -0.5 0
      vertex 0.15 -0.5 0.0299997
    endloop
  endfacet
  facet normal 0 -1 0
    outer loop
      vertex -0.105 -0.5 0.0299997
      vertex -0.0749998 -0.5 0.04
      vertex -0.105 -0.5 0.04
    endloop
  endfacet
  facet normal 0 -1 -0
    outer loop
      vertex -0.0749998 -0.5 0.04
      vertex -0.105 -0.5 0.0299997
      vertex -0.0749998 -0.5 0.0299997
    endloop
  endfacet
  facet normal 0 -1 0
    outer loop
      vertex 0.0749998 -0.5 0.0299997
      vertex 0.105 -0.5 0.04
      vertex 0.0749998 -0.5 0.04
    endloop
  endfacet
  facet normal 0 -1 -0
    outer loop
      vertex 0.105 -0.5 0.04
      vertex 0.0749998 -0.5 0.0299997
      vertex 0.105 -0.5 0.0299997
    endloop
  endfacet
  facet normal 1 0 0
    outer loop
      vertex -0.0749998 0.5 0.04
      vertex -0.0749998 0.45 0.0299997
      vertex -0.0749998 0.5 0.0299997
    endloop
  endfacet
  facet normal 1 0 0
    outer loop
      vertex -0.0749998 0.45 0.0299997
      vertex -0.0749998 0.299999 0.0299997
      vertex -0.0749998 0.45 0.00999928
    endloop
  endfacet
  facet normal 1 0 0
    outer loop
      vertex -0.0749998 0.5 0.04
      vertex -0.0749998 0.299999 0.0299997
      vertex -0.0749998 0.45 0.0299997
    endloop
  endfacet
  facet normal 1 0 0
    outer loop
      vertex -0.0749998 0.5 0.04
      vertex -0.0749998 0.2 0.0299997
      vertex -0.0749998 0.299999 0.0299997
    endloop
  endfacet
  facet normal 1 0 0
    outer loop
      vertex -0.0749998 0.2 0.0299997
      vertex -0.0749998 0.0499992 0.0299997
      vertex -0.0749998 0.2 0.00999928
    endloop
  endfacet
  facet normal 1 0 0
    outer loop
      vertex -0.0749998 0.5 0.04
      vertex -0.0749998 0.0499992 0.0299997
      vertex -0.0749998 0.2 0.0299997
    endloop
  endfacet
  facet normal 1 0 0
    outer loop
      vertex -0.0749998 0.5 0.04
      vertex -0.0749998 -0.0499992 0.0299997
      vertex -0.0749998 0.0499992 0.0299997
    endloop
  endfacet
  facet normal 1 0 0
    outer loop
      vertex -0.0749998 -0.0499992 0.0299997
      vertex -0.0749998 -0.2 0.0299997
      vertex -0.0749998 -0.0499992 0.00999928
    endloop
  endfacet
  facet normal 1 -0 0
    outer loop
      vertex -0.0749998 -0.5 0.04
      vertex -0.0749998 -0.0499992 0.0299997
      vertex -0.0749998 0.5 0.04
    endloop
  endfacet
  facet normal 1 0 0
    outer loop
      vertex -0.0749998 -0.0499992 0.0299997
      vertex -0.0749998 -0.5 0.04
      vertex -0.0749998 -0.2 0.0299997
    endloop
  endfacet
  facet normal 1 0 0
    outer loop
      vertex -0.0749998 -0.299999 0.0299997
      vertex -0.0749998 -0.45 0.0299997
      vertex -0.0749998 -0.299999 0.00999928
    endloop
  endfacet
  facet normal 1 0 0
    outer loop
      vertex -0.0749998 -0.2 0.0299997
      vertex -0.0749998 -0.5 0.04
      vertex -0.0749998 -0.299999 0.0299997
    endloop
  endfacet
  facet normal 1 0 0
    outer loop
      vertex -0.0749998 -0.299999 0.0299997
      vertex -0.0749998 -0.5 0.04
      vertex -0.0749998 -0.45 0.0299997
    endloop
  endfacet
  facet normal 1 0 0
    outer loop
      vertex -0.0749998 -0.45 0.0299997
      vertex -0.0749998 -0.5 0.04
      vertex -0.0749998 -0.5 0.0299997
    endloop
  endfacet
  facet normal 1 0 0
    outer loop
      vertex -0.0749998 0.45 0.00999928
      vertex -0.0749998 0.299999 0.0299997
      vertex -0.0749998 0.299999 0.00999928
    endloop
  endfacet
  facet normal 1 0 0
    outer loop
      vertex -0.0749998 0.2 0.00999928
      vertex -0.0749998 0.0499992 0.0299997
      vertex -0.0749998 0.0499992 0.00999928
    endloop
  endfacet
  facet normal 1 0 0
    outer loop
      vertex -0.0749998 -0.0499992 0.00999928
      vertex -0.0749998 -0.2 0.0299997
      vertex -0.0749998 -0.2 0.00999928
    endloop
  endfacet
  facet normal 1 0 0
    outer loop
      vertex -0.0749998 -0.299999 0.00999928
      vertex -0.0749998 -0.45 0.0299997
      vertex -0.0749998 -0.45 0.00999928
    endloop
  endfacet
  facet normal -0 0 1
    outer loop
      vertex -0.105 0.5 0.04
      vertex -0.0749998 -0.5 0.04
      vertex -0.0749998 0.5 0.04
    endloop
  endfacet
  facet normal 0 0 1
    outer loop
      vertex -0.0749998 -0.5 0.04
      vertex -0.105 0.5 0.04
      vertex -0.105 -0.5 0.04
    endloop
  endfacet
  facet normal 0 0 -1
    outer loop
      vertex -0.105 0.299999 0.00999928
      vertex -0.0749998 0.45 0.00999928
      vertex -0.0749998 0.299999 0.00999928
    endloop
  endfacet
  facet normal -0 0 -1
    outer loop
      vertex -0.0749998 0.45 0.00999928
      vertex -0.105 0.299999 0.00999928
      vertex -0.105 0.45 0.00999928
    endloop
  endfacet
  facet normal 0 0 -1
    outer loop
      vertex -0.105 -0.45 0.00999928
      vertex -0.0749998 -0.299999 0.00999928
      vertex -0.0749998 -0.45 0.00999928
    endloop
  endfacet
  facet normal -0 0 -1
    outer loop
      vertex -0.0749998 -0.299999 0.00999928
      vertex -0.105 -0.45 0.00999928
      vertex -0.105 -0.299999 0.00999928
    endloop
  endfacet
  facet normal 0 0 -1
    outer loop
      vertex -0.105 0.0499992 0.00999928
      vertex -0.0749998 0.2 0.00999928
      vertex -0.0749998 0.0499992 0.00999928
    endloop
  endfacet
  facet normal -0 0 -1
    outer loop
      vertex -0.0749998 0.2 0.00999928
      vertex -0.105 0.0499992 0.00999928
      vertex -0.105 0.2 0.00999928
    endloop
  endfacet
  facet normal 0 0 -1
    outer loop
      vertex -0.105 -0.2 0.00999928
      vertex -0.0749998 -0.0499992 0.00999928
      vertex -0.0749998 -0.2 0.00999928
    endloop
  endfacet
  facet normal -0 0 -1
    outer loop
      vertex -0.0749998 -0.0499992 0.00999928
      vertex -0.105 -0.2 0.00999928
      vertex -0.105 -0.0499992 0.00999928
    endloop
  endfacet
  facet normal -1 0 0
    outer loop
      vertex -0.105 -0.299999 0.00999928
      vertex -0.105 -0.45 0.00999928
      vertex -0.105 -0.299999 0.0299997
    endloop
  endfacet
  facet normal -1 0 0
    outer loop
      vertex -0.105 -0.0499992 0.00999928
      vertex -0.105 -0.2 0.00999928
      vertex -0.105 -0.0499992 0.0299997
    endloop
  endfacet
  facet normal -1 0 0
    outer loop
      vertex -0.105 0.2 0.00999928
      vertex -0.105 0.0499992 0.00999928
      vertex -0.105 0.2 0.0299997
    endloop
  endfacet
  facet normal -1 0 0
    outer loop
      vertex -0.105 0.45 0.00999928
      vertex -0.105 0.299999 0.00999928
      vertex -0.105 0.45 0.0299997
    endloop
  endfacet
  facet normal -1 0 0
    outer loop
      vertex -0.105 0.45 0.0299997
      vertex -0.105 0.5 0.04
      vertex -0.105 0.5 0.0299997
    endloop
  endfacet
  facet normal -1 0 0
    outer loop
      vertex -0.105 0.299999 0.0299997
      vertex -0.105 0.45 0.0299997
      vertex -0.105 0.299999 0.00999928
    endloop
  endfacet
  facet normal -1 0 0
    outer loop
      vertex -0.105 0.45 0.0299997
      vertex -0.105 0.299999 0.0299997
      vertex -0.105 0.5 0.04
    endloop
  endfacet
  facet normal -1 0 0
    outer loop
      vertex -0.105 0.2 0.0299997
      vertex -0.105 0.5 0.04
      vertex -0.105 0.299999 0.0299997
    endloop
  endfacet
  facet normal -1 0 0
    outer loop
      vertex -0.105 0.0499992 0.0299997
      vertex -0.105 0.2 0.0299997
      vertex -0.105 0.0499992 0.00999928
    endloop
  endfacet
  facet normal -1 0 0
    outer loop
      vertex -0.105 0.0499992 0.0299997
      vertex -0.105 0.5 0.04
      vertex -0.105 0.2 0.0299997
    endloop
  endfacet
  facet normal -1 0 0
    outer loop
      vertex -0.105 -0.0499992 0.0299997
      vertex -0.105 0.5 0.04
      vertex -0.105 0.0499992 0.0299997
    endloop
  endfacet
  facet normal -1 0 0
    outer loop
      vertex -0.105 -0.2 0.0299997
      vertex -0.105 -0.0499992 0.0299997
      vertex -0.105 -0.2 0.00999928
    endloop
  endfacet
  facet normal -1 0 0
    outer loop
      vertex -0.105 -0.5 0.04
      vertex -0.105 -0.0499992 0.0299997
      vertex -0.105 -0.2 0.0299997
    endloop
  endfacet
  facet normal -1 0 0
    outer loop
      vertex -0.105 -0.5 0.04
      vertex -0.105 -0.2 0.0299997
      vertex -0.105 -0.299999 0.0299997
    endloop
  endfacet
  facet normal -1 0 0
    outer loop
      vertex -0.105 -0.45 0.0299997
      vertex -0.105 -0.299999 0.0299997
      vertex -0.105 -0.45 0.00999928
    endloop
  endfacet
  facet normal -1 0 0
    outer loop
      vertex -0.105 -0.5 0.04
      vertex -0.105 -0.299999 0.0299997
      vertex -0.105 -0.45 0.0299997
    endloop
  endfacet
  facet normal -1 0 0
    outer loop
      vertex -0.105 -0.5 0.04
      vertex -0.105 -0.45 0.0299997
      vertex -0.105 -0.5 0.0299997
    endloop
  endfacet
  facet normal -1 0 0
    outer loop
      vertex -0.105 -0.0499992 0.0299997
      vertex -0.105 -0.5 0.04
      vertex -0.105 0.5 0.04
    endloop
  endfacet
  facet normal 1 -0 0
    outer loop
      vertex 0.15 0.45 0.0299997
      vertex 0.15 0.5 0
      vertex 0.15 0.5 0.0299997
    endloop
  endfacet
  facet normal 1 0 0
    outer loop
      vertex 0.15 0.5 0
      vertex 0.15 0.45 0.0299997
      vertex 0.15 0.45 0
    endloop
  endfacet
  facet normal -0 0 1
    outer loop
      vertex -0.15 0.5 0.0299997
      vertex -0.105 0.45 0.0299997
      vertex -0.105 0.5 0.0299997
    endloop
  endfacet
  facet normal 0 0 1
    outer loop
      vertex -0.105 0.45 0.0299997
      vertex -0.15 0.5 0.0299997
      vertex -0.15 0.45 0.0299997
    endloop
  endfacet
  facet normal -0 0 1
    outer loop
      vertex 0.105 0.5 0.0299997
      vertex 0.15 0.45 0.0299997
      vertex 0.15 0.5 0.0299997
    endloop
  endfacet
  facet normal 0 0 1
    outer loop
      vertex 0.15 0.45 0.0299997
      vertex 0.105 0.5 0.0299997
      vertex 0.105 0.45 0.0299997
    endloop
  endfacet
  facet normal -0 0 1
    outer loop
      vertex -0.0749998 0.5 0.0299997
      vertex 0.0749998 0.45 0.0299997
      vertex 0.0749998 0.5 0.0299997
    endloop
  endfacet
  facet normal 0 0 1
    outer loop
      vertex 0.0749998 0.45 0.0299997
      vertex -0.0749998 0.5 0.0299997
      vertex -0.0749998 0.45 0.0299997
    endloop
  endfacet
  facet normal 0 0 -1
    outer loop
      vertex -0.15 0.45 0
      vertex 0.15 0.5 0
      vertex 0.15 0.45 0
    endloop
  endfacet
  facet normal -0 0 -1
    outer loop
      vertex 0.15 0.5 0
      vertex -0.15 0.45 0
      vertex -0.15 0.5 0
    endloop
  endfacet
  facet normal -1 0 0
    outer loop
      vertex -0.15 0.45 0
      vertex -0.15 0.5 0.0299997
      vertex -0.15 0.5 0
    endloop
  endfacet
  facet normal -1 -0 0
    outer loop
      vertex -0.15 0.5 0.0299997
      vertex -0.15 0.45 0
      vertex -0.15 0.45 0.0299997
    endloop
  endfacet
  facet normal 0 -1 0
    outer loop
      vertex -0.15 0.45 0.0299997
      vertex -0.105 0.45 0.00999928
      vertex -0.105 0.45 0.0299997
    endloop
  endfacet
  facet normal 0 -1 0
    outer loop
      vertex -0.15 0.45 0
      vertex -0.0749998 0.45 0.00999928
      vertex -0.105 0.45 0.00999928
    endloop
  endfacet
  facet normal 0 -1 -0
    outer loop
      vertex -0.0749998 0.45 0.00999928
      vertex -0.15 0.45 0
      vertex 0.0749998 0.45 0.00999928
    endloop
  endfacet
  facet normal 0 -1 0
    outer loop
      vertex 0.15 0.45 0
      vertex 0.0749998 0.45 0.00999928
      vertex -0.15 0.45 0
    endloop
  endfacet
  facet normal 0 -1 0
    outer loop
      vertex -0.15 0.45 0
      vertex -0.105 0.45 0.00999928
      vertex -0.15 0.45 0.0299997
    endloop
  endfacet
  facet normal 0 -1 0
    outer loop
      vertex -0.0749998 0.45 0.00999928
      vertex 0.0749998 0.45 0.0299997
      vertex -0.0749998 0.45 0.0299997
    endloop
  endfacet
  facet normal 0 -1 -0
    outer loop
      vertex 0.0749998 0.45 0.0299997
      vertex -0.0749998 0.45 0.00999928
      vertex 0.0749998 0.45 0.00999928
    endloop
  endfacet
  facet normal 0 -1 0
    outer loop
      vertex 0.105 0.45 0.00999928
      vertex 0.15 0.45 0.0299997
      vertex 0.105 0.45 0.0299997
    endloop
  endfacet
  facet normal 0 -1 0
    outer loop
      vertex 0.105 0.45 0.00999928
      vertex 0.15 0.45 0
      vertex 0.15 0.45 0.0299997
    endloop
  endfacet
  facet normal 0 -1 0
    outer loop
      vertex 0.0749998 0.45 0.00999928
      vertex 0.15 0.45 0
      vertex 0.105 0.45 0.00999928
    endloop
  endfacet
  facet normal 1 -0 0
    outer loop
      vertex 0.15 -0.5 0.0299997
      vertex 0.15 -0.45 0
      vertex 0.15 -0.45 0.0299997
    endloop
  endfacet
  facet normal 1 0 0
    outer loop
      vertex 0.15 -0.45 0
      vertex 0.15 -0.5 0.0299997
      vertex 0.15 -0.5 0
    endloop
  endfacet
  facet normal -0 0 1
    outer loop
      vertex -0.15 -0.45 0.0299997
      vertex -0.105 -0.5 0.0299997
      vertex -0.105 -0.45 0.0299997
    endloop
  endfacet
  facet normal 0 0 1
    outer loop
      vertex -0.105 -0.5 0.0299997
      vertex -0.15 -0.45 0.0299997
      vertex -0.15 -0.5 0.0299997
    endloop
  endfacet
  facet normal -0 0 1
    outer loop
      vertex 0.105 -0.45 0.0299997
      vertex 0.15 -0.5 0.0299997
      vertex 0.15 -0.45 0.0299997
    endloop
  endfacet
  facet normal 0 0 1
    outer loop
      vertex 0.15 -0.5 0.0299997
      vertex 0.105 -0.45 0.0299997
      vertex 0.105 -0.5 0.0299997
    endloop
  endfacet
  facet normal -0 0 1
    outer loop
      vertex -0.0749998 -0.45 0.0299997
      vertex 0.0749998 -0.5 0.0299997
      vertex 0.0749998 -0.45 0.0299997
    endloop
  endfacet
  facet normal 0 0 1
    outer loop
      vertex 0.0749998 -0.5 0.0299997
      vertex -0.0749998 -0.45 0.0299997
      vertex -0.0749998 -0.5 0.0299997
    endloop
  endfacet
  facet normal 0 0 -1
    outer loop
      vertex -0.15 -0.5 0
      vertex 0.15 -0.45 0
      vertex 0.15 -0.5 0
    endloop
  endfacet
  facet normal -0 0 -1
    outer loop
      vertex 0.15 -0.45 0
      vertex -0.15 -0.5 0
      vertex -0.15 -0.45 0
    endloop
  endfacet
  facet normal -1 0 0
    outer loop
      vertex -0.15 -0.5 0
      vertex -0.15 -0.45 0.0299997
      vertex -0.15 -0.45 0
    endloop
  endfacet
  facet normal -1 -0 0
    outer loop
      vertex -0.15 -0.45 0.0299997
      vertex -0.15 -0.5 0
      vertex -0.15 -0.5 0.0299997
    endloop
  endfacet
  facet normal 0 1 0
    outer loop
      vertex 0.15 -0.45 0.0299997
      vertex 0.105 -0.45 0.00999928
      vertex 0.105 -0.45 0.0299997
    endloop
  endfacet
  facet normal 0 1 0
    outer loop
      vertex 0.15 -0.45 0
      vertex 0.0749998 -0.45 0.00999928
      vertex 0.105 -0.45 0.00999928
    endloop
  endfacet
  facet normal 0 1 0
    outer loop
      vertex 0.0749998 -0.45 0.00999928
      vertex 0.15 -0.45 0
      vertex -0.0749998 -0.45 0.00999928
    endloop
  endfacet
  facet normal 0 1 0
    outer loop
      vertex -0.15 -0.45 0
      vertex -0.0749998 -0.45 0.00999928
      vertex 0.15 -0.45 0
    endloop
  endfacet
  facet normal 0 1 -0
    outer loop
      vertex 0.15 -0.45 0
      vertex 0.105 -0.45 0.00999928
      vertex 0.15 -0.45 0.0299997
    endloop
  endfacet
  facet normal 0 1 -0
    outer loop
      vertex 0.0749998 -0.45 0.00999928
      vertex -0.0749998 -0.45 0.0299997
      vertex 0.0749998 -0.45 0.0299997
    endloop
  endfacet
  facet normal 0 1 0
    outer loop
      vertex -0.0749998 -0.45 0.0299997
      vertex 0.0749998 -0.45 0.00999928
      vertex -0.0749998 -0.45 0.00999928
    endloop
  endfacet
  facet normal 0 1 -0
    outer loop
      vertex -0.105 -0.45 0.00999928
      vertex -0.15 -0.45 0.0299997
      vertex -0.105 -0.45 0.0299997
    endloop
  endfacet
  facet normal 0 1 0
    outer loop
      vertex -0.105 -0.45 0.00999928
      vertex -0.15 -0.45 0
      vertex -0.15 -0.45 0.0299997
    endloop
  endfacet
  facet normal 0 1 0
    outer loop
      vertex -0.0749998 -0.45 0.00999928
      vertex -0.15 -0.45 0
      vertex -0.105 -0.45 0.00999928
    endloop
  endfacet
  facet normal 1 -0 0
    outer loop
      vertex 0.15 0.2 0.0299997
      vertex 0.15 0.299999 0
      vertex 0.15 0.299999 0.0299997
    endloop
  endfacet
  facet normal 1 0 0
    outer loop
      vertex 0.15 0.299999 0
      vertex 0.15 0.2 0.0299997
      vertex 0.15 0.2 0
    endloop
  endfacet
  facet normal -0 0 1
    outer loop
      vertex -0.15 0.299999 0.0299997
      vertex -0.105 0.2 0.0299997
      vertex -0.105 0.299999 0.0299997
    endloop
  endfacet
  facet normal 0 0 1
    outer loop
      vertex -0.105 0.2 0.0299997
      vertex -0.15 0.299999 0.0299997
      vertex -0.15 0.2 0.0299997
    endloop
  endfacet
  facet normal -0 0 1
    outer loop
      vertex 0.105 0.299999 0.0299997
      vertex 0.15 0.2 0.0299997
      vertex 0.15 0.299999 0.0299997
    endloop
  endfacet
  facet normal 0 0 1
    outer loop
      vertex 0.15 0.2 0.0299997
      vertex 0.105 0.299999 0.0299997
      vertex 0.105 0.2 0.0299997
    endloop
  endfacet
  facet normal -0 0 1
    outer loop
      vertex -0.0749998 0.299999 0.0299997
      vertex 0.0749998 0.2 0.0299997
      vertex 0.0749998 0.299999 0.0299997
    endloop
  endfacet
  facet normal 0 0 1
    outer loop
      vertex 0.0749998 0.2 0.0299997
      vertex -0.0749998 0.299999 0.0299997
      vertex -0.0749998 0.2 0.0299997
    endloop
  endfacet
  facet normal 0 0 -1
    outer loop
      vertex -0.15 0.2 0
      vertex 0.15 0.299999 0
      vertex 0.15 0.2 0
    endloop
  endfacet
  facet normal -0 0 -1
    outer loop
      vertex 0.15 0.299999 0
      vertex -0.15 0.2 0
      vertex -0.15 0.299999 0
    endloop
  endfacet
  facet normal -1 0 0
    outer loop
      vertex -0.15 0.2 0
      vertex -0.15 0.299999 0.0299997
      vertex -0.15 0.299999 0
    endloop
  endfacet
  facet normal -1 -0 0
    outer loop
      vertex -0.15 0.299999 0.0299997
      vertex -0.15 0.2 0
      vertex -0.15 0.2 0.0299997
    endloop
  endfacet
  facet normal 0 1 0
    outer loop
      vertex 0.15 0.299999 0.0299997
      vertex 0.105 0.299999 0.00999928
      vertex 0.105 0.299999 0.0299997
    endloop
  endfacet
  facet normal 0 1 0
    outer loop
      vertex 0.15 0.299999 0
      vertex 0.0749998 0.299999 0.00999928
      vertex 0.105 0.299999 0.00999928
    endloop
  endfacet
  facet normal 0 1 0
    outer loop
      vertex 0.0749998 0.299999 0.00999928
      vertex 0.15 0.299999 0
      vertex -0.0749998 0.299999 0.00999928
    endloop
  endfacet
  facet normal 0 1 0
    outer loop
      vertex -0.15 0.299999 0
      vertex -0.0749998 0.299999 0.00999928
      vertex 0.15 0.299999 0
    endloop
  endfacet
  facet normal 0 1 -0
    outer loop
      vertex 0.15 0.299999 0
      vertex 0.105 0.299999 0.00999928
      vertex 0.15 0.299999 0.0299997
    endloop
  endfacet
  facet normal 0 1 -0
    outer loop
      vertex 0.0749998 0.299999 0.00999928
      vertex -0.0749998 0.299999 0.0299997
      vertex 0.0749998 0.299999 0.0299997
    endloop
  endfacet
  facet normal 0 1 0
    outer loop
      vertex -0.0749998 0.299999 0.0299997
      vertex 0.0749998 0.299999 0.00999928
      vertex -0.0749998 0.299999 0.00999928
    endloop
  endfacet
  facet normal 0 1 -0
    outer loop
      vertex -0.105 0.299999 0.00999928
      vertex -0.15 0.299999 0.0299997
      vertex -0.105 0.299999 0.0299997
    endloop
  endfacet
  facet normal 0 1 0
    outer loop
      vertex -0.105 0.299999 0.00999928
      vertex -0.15 0.299999 0
      vertex -0.15 0.299999 0.0299997
    endloop
  endfacet
  facet normal 0 1 0
    outer loop
      vertex -0.0749998 0.299999 0.00999928
      vertex -0.15 0.299999 0
      vertex -0.105 0.299999 0.00999928
    endloop
  endfacet
  facet normal 0 -1 0
    outer loop
      vertex -0.15 0.2 0.0299997
      vertex -0.105 0.2 0.00999928
      vertex -0.105 0.2 0.0299997
    endloop
  endfacet
  facet normal 0 -1 0
    outer loop
      vertex -0.15 0.2 0
      vertex -0.0749998 0.2 0.00999928
      vertex -0.105 0.2 0.00999928
    endloop
  endfacet
  facet normal 0 -1 -0
    outer loop
      vertex -0.0749998 0.2 0.00999928
      vertex -0.15 0.2 0
      vertex 0.0749998 0.2 0.00999928
    endloop
  endfacet
  facet normal 0 -1 0
    outer loop
      vertex 0.15 0.2 0
      vertex 0.0749998 0.2 0.00999928
      vertex -0.15 0.2 0
    endloop
  endfacet
  facet normal 0 -1 0
    outer loop
      vertex -0.15 0.2 0
      vertex -0.105 0.2 0.00999928
      vertex -0.15 0.2 0.0299997
    endloop
  endfacet
  facet normal 0 -1 0
    outer loop
      vertex -0.0749998 0.2 0.00999928
      vertex 0.0749998 0.2 0.0299997
      vertex -0.0749998 0.2 0.0299997
    endloop
  endfacet
  facet normal 0 -1 -0
    outer loop
      vertex 0.0749998 0.2 0.0299997
      vertex -0.0749998 0.2 0.00999928
      vertex 0.0749998 0.2 0.00999928
    endloop
  endfacet
  facet normal 0 -1 0
    outer loop
      vertex 0.105 0.2 0.00999928
      vertex 0.15 0.2 0.0299997
      vertex 0.105 0.2 0.0299997
    endloop
  endfacet
  facet normal 0 -1 0
    outer loop
      vertex 0.105 0.2 0.00999928
      vertex 0.15 0.2 0
      vertex 0.15 0.2 0.0299997
    endloop
  endfacet
  facet normal 0 -1 0
    outer loop
      vertex 0.0749998 0.2 0.00999928
      vertex 0.15 0.2 0
      vertex 0.105 0.2 0.00999928
    endloop
  endfacet
  facet normal 1 -0 0
    outer loop
      vertex 0.15 -0.299999 0.0299997
      vertex 0.15 -0.2 0
      vertex 0.15 -0.2 0.0299997
    endloop
  endfacet
  facet normal 1 0 0
    outer loop
      vertex 0.15 -0.2 0
      vertex 0.15 -0.299999 0.0299997
      vertex 0.15 -0.299999 0
    endloop
  endfacet
  facet normal -0 0 1
    outer loop
      vertex -0.15 -0.2 0.0299997
      vertex -0.105 -0.299999 0.0299997
      vertex -0.105 -0.2 0.0299997
    endloop
  endfacet
  facet normal 0 0 1
    outer loop
      vertex -0.105 -0.299999 0.0299997
      vertex -0.15 -0.2 0.0299997
      vertex -0.15 -0.299999 0.0299997
    endloop
  endfacet
  facet normal -0 0 1
    outer loop
      vertex 0.105 -0.2 0.0299997
      vertex 0.15 -0.299999 0.0299997
      vertex 0.15 -0.2 0.0299997
    endloop
  endfacet
  facet normal 0 0 1
    outer loop
      vertex 0.15 -0.299999 0.0299997
      vertex 0.105 -0.2 0.0299997
      vertex 0.105 -0.299999 0.0299997
    endloop
  endfacet
  facet normal -0 0 1
    outer loop
      vertex -0.0749998 -0.2 0.0299997
      vertex 0.0749998 -0.299999 0.0299997
      vertex 0.0749998 -0.2 0.0299997
    endloop
  endfacet
  facet normal 0 0 1
    outer loop
      vertex 0.0749998 -0.299999 0.0299997
      vertex -0.0749998 -0.2 0.0299997
      vertex -0.0749998 -0.299999 0.0299997
    endloop
  endfacet
  facet normal 0 0 -1
    outer loop
      vertex -0.15 -0.299999 0
      vertex 0.15 -0.2 0
      vertex 0.15 -0.299999 0
    endloop
  endfacet
  facet normal -0 0 -1
    outer loop
      vertex 0.15 -0.2 0
      vertex -0.15 -0.299999 0
      vertex -0.15 -0.2 0
    endloop
  endfacet
  facet normal -1 0 0
    outer loop
      vertex -0.15 -0.299999 0
      vertex -0.15 -0.2 0.0299997
      vertex -0.15 -0.2 0
    endloop
  endfacet
  facet normal -1 -0 0
    outer loop
      vertex -0.15 -0.2 0.0299997
      vertex -0.15 -0.299999 0
      vertex -0.15 -0.299999 0.0299997
    endloop
  endfacet
  facet normal 0 1 0
    outer loop
      vertex 0.15 -0.2 0.0299997
      vertex 0.105 -0.2 0.00999928
      vertex 0.105 -0.2 0.0299997
    endloop
  endfacet
  facet normal 0 1 0
    outer loop
      vertex 0.15 -0.2 0
      vertex 0.0749998 -0.2 0.00999928
      vertex 0.105 -0.2 0.00999928
    endloop
  endfacet
  facet normal 0 1 0
    outer loop
      vertex 0.0749998 -0.2 0.00999928
      vertex 0.15 -0.2 0
      vertex -0.0749998 -0.2 0.00999928
    endloop
  endfacet
  facet normal 0 1 0
    outer loop
      vertex -0.15 -0.2 0
      vertex -0.0749998 -0.2 0.00999928
      vertex 0.15 -0.2 0
    endloop
  endfacet
  facet normal 0 1 -0
    outer loop
      vertex 0.15 -0.2 0
      vertex 0.105 -0.2 0.00999928
      vertex 0.15 -0.2 0.0299997
    endloop
  endfacet
  facet normal 0 1 -0
    outer loop
      vertex 0.0749998 -0.2 0.00999928
      vertex -0.0749998 -0.2 0.0299997
      vertex 0.0749998 -0.2 0.0299997
    endloop
  endfacet
  facet normal 0 1 0
    outer loop
      vertex -0.0749998 -0.2 0.0299997
      vertex 0.0749998 -0.2 0.00999928
      vertex -0.0749998 -0.2 0.00999928
    endloop
  endfacet
  facet normal 0 1 -0
    outer loop
      vertex -0.105 -0.2 0.00999928
      vertex -0.15 -0.2 0.0299997
      vertex -0.105 -0.2 0.0299997
    endloop
  endfacet
  facet normal 0 1 0
    outer loop
      vertex -0.105 -0.2 0.00999928
      vertex -0.15 -0.2 0
      vertex -0.15 -0.2 0.0299997
    endloop
  endfacet
  facet normal 0 1 0
    outer loop
      vertex -0.0749998 -0.2 0.00999928
      vertex -0.15 -0.2 0
      vertex -0.105 -0.2 0.00999928
    endloop
  endfacet
  facet normal 0 -1 0
    outer loop
      vertex -0.15 -0.299999 0.0299997
      vertex -0.105 -0.299999 0.00999928
      vertex -0.105 -0.299999 0.0299997
    endloop
  endfacet
  facet normal 0 -1 0
    outer loop
      vertex -0.15 -0.299999 0
      vertex -0.0749998 -0.299999 0.00999928
      vertex -0.105 -0.299999 0.00999928
    endloop
  endfacet
  facet normal 0 -1 -0
    outer loop
      vertex -0.0749998 -0.299999 0.00999928
      vertex -0.15 -0.299999 0
      vertex 0.0749998 -0.299999 0.00999928
    endloop
  endfacet
  facet normal 0 -1 0
    outer loop
      vertex 0.15 -0.299999 0
      vertex 0.0749998 -0.299999 0.00999928
      vertex -0.15 -0.299999 0
    endloop
  endfacet
  facet normal 0 -1 0
    outer loop
      vertex -0.15 -0.299999 0
      vertex -0.105 -0.299999 0.00999928
      vertex -0.15 -0.299999 0.0299997
    endloop
  endfacet
  facet normal 0 -1 0
    outer loop
      vertex -0.0749998 -0.299999 0.00999928
      vertex 0.0749998 -0.299999 0.0299997
      vertex -0.0749998 -0.299999 0.0299997
    endloop
  endfacet
  facet normal 0 -1 -0
    outer loop
      vertex 0.0749998 -0.299999 0.0299997
      vertex -0.0749998 -0.299999 0.00999928
      vertex 0.0749998 -0.299999 0.00999928
    endloop
  endfacet
  facet normal 0 -1 0
    outer loop
      vertex 0.105 -0.299999 0.00999928
      vertex 0.15 -0.299999 0.0299997
      vertex 0.105 -0.299999 0.0299997
    endloop
  endfacet
  facet normal 0 -1 0
    outer loop
      vertex 0.105 -0.299999 0.00999928
      vertex 0.15 -0.299999 0
      vertex 0.15 -0.299999 0.0299997
    endloop
  endfacet
  facet normal 0 -1 0
    outer loop
      vertex 0.0749998 -0.299999 0.00999928
      vertex 0.15 -0.299999 0
      vertex 0.105 -0.299999 0.00999928
    endloop
  endfacet
  facet normal 1 -0 0
    outer loop
      vertex 0.15 -0.0499992 0.0299997
      vertex 0.15 0.0499992 0
      vertex 0.15 0.0499992 0.0299997
    endloop
  endfacet
  facet normal 1 0 0
    outer loop
      vertex 0.15 0.0499992 0
      vertex 0.15 -0.0499992 0.0299997
      vertex 0.15 -0.0499992 0
    endloop
  endfacet
  facet normal -0 0 1
    outer loop
      vertex -0.15 0.0499992 0.0299997
      vertex -0.105 -0.0499992 0.0299997
      vertex -0.105 0.0499992 0.0299997
    endloop
  endfacet
  facet normal 0 0 1
    outer loop
      vertex -0.105 -0.0499992 0.0299997
      vertex -0.15 0.0499992 0.0299997
      vertex -0.15 -0.0499992 0.0299997
    endloop
  endfacet
  facet normal -0 0 1
    outer loop
      vertex 0.105 0.0499992 0.0299997
      vertex 0.15 -0.0499992 0.0299997
      vertex 0.15 0.0499992 0.0299997
    endloop
  endfacet
  facet normal 0 0 1
    outer loop
      vertex 0.15 -0.0499992 0.0299997
      vertex 0.105 0.0499992 0.0299997
      vertex 0.105 -0.0499992 0.0299997
    endloop
  endfacet
  facet normal -0 0 1
    outer loop
      vertex -0.0749998 0.0499992 0.0299997
      vertex 0.0749998 -0.0499992 0.0299997
      vertex 0.0749998 0.0499992 0.0299997
    endloop
  endfacet
  facet normal 0 0 1
    outer loop
      vertex 0.0749998 -0.0499992 0.0299997
      vertex -0.0749998 0.0499992 0.0299997
      vertex -0.0749998 -0.0499992 0.0299997
    endloop
  endfacet
  facet normal 0 0 -1
    outer loop
      vertex -0.15 -0.0499992 0
      vertex 0.15 0.0499992 0
      vertex 0.15 -0.0499992 0
    endloop
  endfacet
  facet normal -0 0 -1
    outer loop
      vertex 0.15 0.0499992 0
      vertex -0.15 -0.0499992 0
      vertex -0.15 0.0499992 0
    endloop
  endfacet
  facet normal -1 0 0
    outer loop
      vertex -0.15 -0.0499992 0
      vertex -0.15 0.0499992 0.0299997
      vertex -0.15 0.0499992 0
    endloop
  endfacet
  facet normal -1 -0 0
    outer loop
      vertex -0.15 0.0499992 0.0299997
      vertex -0.15 -0.0499992 0
      vertex -0.15 -0.0499992 0.0299997
    endloop
  endfacet
  facet normal 0 1 0
    outer loop
      vertex 0.15 0.0499992 0.0299997
      vertex 0.105 0.0499992 0.00999928
      vertex 0.105 0.0499992 0.0299997
    endloop
  endfacet
  facet normal 0 1 0
    outer loop
      vertex 0.15 0.0499992 0
      vertex 0.0749998 0.0499992 0.00999928
      vertex 0.105 0.0499992 0.00999928
    endloop
  endfacet
  facet normal 0 1 0
    outer loop
      vertex 0.0749998 0.0499992 0.00999928
      vertex 0.15 0.0499992 0
      vertex -0.0749998 0.0499992 0.00999928
    endloop
  endfacet
  facet normal 0 1 0
    outer loop
      vertex -0.15 0.0499992 0
      vertex -0.0749998 0.0499992 0.00999928
      vertex 0.15 0.0499992 0
    endloop
  endfacet
  facet normal 0 1 -0
    outer loop
      vertex 0.15 0.0499992 0
      vertex 0.105 0.0499992 0.00999928
      vertex 0.15 0.0499992 0.0299997
    endloop
  endfacet
  facet normal 0 1 -0
    outer loop
      vertex 0.0749998 0.0499992 0.00999928
      vertex -0.0749998 0.0499992 0.0299997
      vertex 0.0749998 0.0499992 0.0299997
    endloop
  endfacet
  facet normal 0 1 0
    outer loop
      vertex -0.0749998 0.0499992 0.0299997
      vertex 0.0749998 0.0499992 0.00999928
      vertex -0.0749998 0.0499992 0.00999928
    endloop
  endfacet
  facet normal 0 1 -0
    outer loop
      vertex -0.105 0.0499992 0.00999928
      vertex -0.15 0.0499992 0.0299997
      vertex -0.105 0.0499992 0.0299997
    endloop
  endfacet
  facet normal 0 1 0
    outer loop
      vertex -0.105 0.0499992 0.00999928
      vertex -0.15 0.0499992 0
      vertex -0.15 0.0499992 0.0299997
    endloop
  endfacet
  facet normal 0 1 0
    outer loop
      vertex -0.0749998 0.0499992 0.00999928
      vertex -0.15 0.0499992 0
      vertex -0.105 0.0499992 0.00999928
    endloop
  endfacet
  facet normal 0 -1 0
    outer loop
      vertex -0.15 -0.0499992 0.0299997
      vertex -0.105 -0.0499992 0.00999928
      vertex -0.105 -0.0499992 0.0299997
    endloop
  endfacet
  facet normal 0 -1 0
    outer loop
      vertex -0.15 -0.0499992 0
      vertex -0.0749998 -0.0499992 0.00999928
      vertex -0.105 -0.0499992 0.00999928
    endloop
  endfacet
  facet normal 0 -1 -0
    outer loop
      vertex -0.0749998 -0.0499992 0.00999928
      vertex -0.15 -0.0499992 0
      vertex 0.0749998 -0.0499992 0.00999928
    endloop
  endfacet
  facet normal 0 -1 0
    outer loop
      vertex 0.15 -0.0499992 0
      vertex 0.0749998 -0.0499992 0.00999928
      vertex -0.15 -0.0499992 0
    endloop
  endfacet
  facet normal 0 -1 0
    outer loop
      vertex -0.15 -0.0499992 0
      vertex -0.105 -0.0499992 0.00999928
      vertex -0.15 -0.0499992 0.0299997
    endloop
  endfacet
  facet normal 0 -1 0
    outer loop
      vertex -0.0749998 -0.0499992 0.00999928
      vertex 0.0749998 -0.0499992 0.0299997
      vertex -0.0749998 -0.0499992 0.0299997
    endloop
  endfacet
  facet normal 0 -1 -0
    outer loop
      vertex 0.0749998 -0.0499992 0.0299997
      vertex -0.0749998 -0.0499992 0.00999928
      vertex 0.0749998 -0.0499992 0.00999928
    endloop
  endfacet
  facet normal 0 -1 0
    outer loop
      vertex 0.105 -0.0499992 0.00999928
      vertex 0.15 -0.0499992 0.0299997
      vertex 0.105 -0.0499992 0.0299997
    endloop
  endfacet
  facet normal 0 -1 0
    outer loop
      vertex 0.105 -0.0499992 0.00999928
      vertex 0.15 -0.0499992 0
      vertex 0.15 -0.0499992 0.0299997
    endloop
  endfacet
  facet normal 0 -1 0
    outer loop
      vertex 0.0749998 -0.0499992 0.00999928
      vertex 0.15 -0.0499992 0
      vertex 0.105 -0.0499992 0.00999928
    endloop
  endfacet
endsolid OpenSCAD_Model
